<?xml version="1.0" encoding="utf-8"?>
<!-- Generator: Adobe Illustrator 21.1.0, SVG Export Plug-In . SVG Version: 6.00 Build 0)  -->
<svg version="1.1" id="Layer_1" xmlns="http://www.w3.org/2000/svg" xmlns:xlink="http://www.w3.org/1999/xlink" x="0px" y="0px"
	 viewBox="0 0 966 662.3" style="enable-background:new 0 0 966 662.3;" xml:space="preserve">
<style type="text/css">
	.st0{fill:#29363E;}
	.st1{fill:#314D59;}
	.st2{fill:url(#XMLID_2_);}
	.st3{clip-path:url(#XMLID_12_);}
	.st4{fill:url(#SVGID_1_);}
	.st5{fill:url(#SVGID_2_);}
	.st6{fill:url(#SVGID_3_);}
	.st7{fill:url(#SVGID_4_);}
	.st8{fill:url(#SVGID_5_);}
	.st9{fill:url(#SVGID_6_);}
	.st10{fill:url(#SVGID_7_);}
	.st11{fill:url(#SVGID_8_);}
	.st12{fill:url(#SVGID_9_);}
	.st13{fill:url(#SVGID_10_);}
	.st14{fill:url(#SVGID_11_);}
	.st15{fill:url(#SVGID_12_);}
	.st16{fill:url(#SVGID_13_);}
	.st17{fill:url(#SVGID_14_);}
	.st18{fill:url(#SVGID_15_);}
	.st19{fill:url(#SVGID_16_);}
	.st20{fill:url(#SVGID_17_);}
	.st21{fill:url(#SVGID_18_);}
	.st22{fill:url(#SVGID_19_);}
	.st23{fill:url(#SVGID_20_);}
	.st24{fill:url(#SVGID_21_);}
	.st25{fill:#6D8591;}
	.st26{fill:#B7ECED;}
	.st27{fill:url(#XMLID_14_);}
	.st28{fill:url(#XMLID_15_);}
	.st29{fill:#FFFFFF;}
	.st30{fill:url(#XMLID_17_);}
	.st31{fill:url(#XMLID_18_);}
	.st32{fill:url(#XMLID_19_);}
	.st33{fill:url(#XMLID_20_);}
	.st34{fill:url(#XMLID_21_);}
	.st35{fill:url(#XMLID_22_);}
	.st36{fill:url(#XMLID_29_);}
	.st37{fill:url(#XMLID_34_);}
	.st38{fill:url(#XMLID_35_);}
	.st39{fill:url(#XMLID_37_);}
	.st40{fill:url(#XMLID_38_);}
	.st41{fill:url(#XMLID_39_);}
	.st42{fill:url(#XMLID_40_);}
	.st43{fill:#CC8C58;}
	.st44{fill:#F2B370;}
	.st45{fill:#E2A269;}
	.st46{fill:#CE7E2E;}
	.st47{fill:#E5A162;}
	.st48{fill:#EF5D00;}
	.st49{fill:url(#XMLID_41_);}
	.st50{fill:#F7941E;}
	.st51{fill:url(#XMLID_43_);}
	.st52{fill:url(#XMLID_45_);}
	.st53{fill:url(#XMLID_46_);}
	.st54{filter:url(#Adobe_OpacityMaskFilter);}
	.st55{filter:url(#Adobe_OpacityMaskFilter_1_);}
	.st56{mask:url(#XMLID_48_);fill:url(#XMLID_49_);}
	.st57{fill:#FBB040;}
	.st58{filter:url(#Adobe_OpacityMaskFilter_2_);}
	.st59{filter:url(#Adobe_OpacityMaskFilter_3_);}
	.st60{mask:url(#XMLID_51_);fill:url(#XMLID_52_);}
	.st61{opacity:0.5;fill:url(#XMLID_56_);}
	.st62{fill:#22303D;}
	.st63{fill:#678A86;}
	.st64{fill:#B5BCBB;}
	.st65{fill:#556A6F;}
	.st66{filter:url(#Adobe_OpacityMaskFilter_4_);}
	.st67{filter:url(#Adobe_OpacityMaskFilter_5_);}
	.st68{mask:url(#XMLID_58_);fill:url(#XMLID_61_);}
	.st69{opacity:0.5;fill:url(#XMLID_62_);}
	.st70{fill:#F9ED32;}
</style>
<g id="XMLID_3_">
	<g id="XMLID_31_">
		
			<rect id="XMLID_32_" x="643.3" y="200.3" transform="matrix(0.9948 -0.1019 0.1019 0.9948 -30.0008 67.4226)" class="st0" width="3.6" height="254.2"/>
	</g>
	<g id="XMLID_30_">
		
			<rect id="XMLID_33_" x="35" y="340.8" transform="matrix(0.1859 -0.9826 0.9826 0.1859 -171.6449 477.9465)" class="st0" width="335.3" height="3.6"/>
	</g>
	<g id="XMLID_1650_">
		<polygon id="XMLID_1813_" class="st1" points="184.6,260 232,278 633.8,258.1 690.5,235.2 495.6,110.8 285.7,165.6 		"/>
		
			<linearGradient id="XMLID_2_" gradientUnits="userSpaceOnUse" x1="450.1387" y1="539.8969" x2="450.1387" y2="173.1101" gradientTransform="matrix(0.9988 -4.930000e-02 4.930000e-02 0.9988 -31.0502 -63.4936)">
			<stop  offset="0" style="stop-color:#F2E7D3"/>
			<stop  offset="0.2018" style="stop-color:#D7D2C2"/>
			<stop  offset="0.6321" style="stop-color:#939B96"/>
			<stop  offset="1" style="stop-color:#54696E"/>
		</linearGradient>
		<polygon id="XMLID_1812_" class="st2" points="417.5,49.3 233,194.5 246.1,460.9 644,441.3 630.8,174.9 		"/>
		<g id="XMLID_1702_">
			<defs>
				<polygon id="XMLID_1703_" points="417.5,49.3 233,194.5 246.1,460.9 644,441.3 630.8,174.9 				"/>
			</defs>
			<clipPath id="XMLID_12_">
				<use xlink:href="#XMLID_1703_"  style="overflow:visible;"/>
			</clipPath>
			<g id="XMLID_1704_" class="st3">
				<g>
					<g id="XMLID_491_">
						
							<linearGradient id="SVGID_1_" gradientUnits="userSpaceOnUse" x1="442.1594" y1="165.1395" x2="442.1594" y2="532.6437" gradientTransform="matrix(0.9988 -4.930000e-02 4.930000e-02 0.9988 -31.0502 -63.4936)">
							<stop  offset="0" style="stop-color:#F2E7D3"/>
							<stop  offset="0.2018" style="stop-color:#D7D2C2"/>
							<stop  offset="0.6321" style="stop-color:#939B96"/>
							<stop  offset="1" style="stop-color:#54696E"/>
						</linearGradient>
						<polygon class="st4" points="162.7,82.2 673.8,57 674.1,64.5 163,89.7 						"/>
					</g>
					<g id="XMLID_490_">
						
							<linearGradient id="SVGID_2_" gradientUnits="userSpaceOnUse" x1="442.1585" y1="165.0815" x2="442.1585" y2="532.5856" gradientTransform="matrix(0.9988 -4.930000e-02 4.930000e-02 0.9988 -31.0502 -63.4936)">
							<stop  offset="0" style="stop-color:#F2E7D3"/>
							<stop  offset="0.2018" style="stop-color:#D7D2C2"/>
							<stop  offset="0.6321" style="stop-color:#939B96"/>
							<stop  offset="1" style="stop-color:#54696E"/>
						</linearGradient>
						<polygon class="st5" points="163.6,100.5 674.7,75.3 675,82.8 163.9,108 						"/>
					</g>
					<g id="XMLID_489_">
						
							<linearGradient id="SVGID_3_" gradientUnits="userSpaceOnUse" x1="442.1577" y1="165.0235" x2="442.1577" y2="532.5276" gradientTransform="matrix(0.9988 -4.930000e-02 4.930000e-02 0.9988 -31.0502 -63.4936)">
							<stop  offset="0" style="stop-color:#F2E7D3"/>
							<stop  offset="0.2018" style="stop-color:#D7D2C2"/>
							<stop  offset="0.6321" style="stop-color:#939B96"/>
							<stop  offset="1" style="stop-color:#54696E"/>
						</linearGradient>
						<polygon class="st6" points="164.5,118.7 675.6,93.5 675.9,101.1 164.8,126.3 						"/>
					</g>
					<g id="XMLID_488_">
						
							<linearGradient id="SVGID_4_" gradientUnits="userSpaceOnUse" x1="442.1568" y1="164.9654" x2="442.1568" y2="532.4698" gradientTransform="matrix(0.9988 -4.930000e-02 4.930000e-02 0.9988 -31.0502 -63.4936)">
							<stop  offset="0" style="stop-color:#F2E7D3"/>
							<stop  offset="0.2018" style="stop-color:#D7D2C2"/>
							<stop  offset="0.6321" style="stop-color:#939B96"/>
							<stop  offset="1" style="stop-color:#54696E"/>
						</linearGradient>
						<polygon class="st7" points="165.4,137 676.5,111.8 676.8,119.3 165.7,144.5 						"/>
					</g>
					<g id="XMLID_487_">
						
							<linearGradient id="SVGID_5_" gradientUnits="userSpaceOnUse" x1="442.156" y1="164.9073" x2="442.156" y2="532.4115" gradientTransform="matrix(0.9988 -4.930000e-02 4.930000e-02 0.9988 -31.0502 -63.4936)">
							<stop  offset="0" style="stop-color:#F2E7D3"/>
							<stop  offset="0.2018" style="stop-color:#D7D2C2"/>
							<stop  offset="0.6321" style="stop-color:#939B96"/>
							<stop  offset="1" style="stop-color:#54696E"/>
						</linearGradient>
						<polygon class="st8" points="166.3,155.3 677.4,130.1 677.7,137.6 166.7,162.8 						"/>
					</g>
					<g id="XMLID_486_">
						
							<linearGradient id="SVGID_6_" gradientUnits="userSpaceOnUse" x1="442.1552" y1="164.8493" x2="442.1552" y2="532.3535" gradientTransform="matrix(0.9988 -4.930000e-02 4.930000e-02 0.9988 -31.0502 -63.4936)">
							<stop  offset="0" style="stop-color:#F2E7D3"/>
							<stop  offset="0.2018" style="stop-color:#D7D2C2"/>
							<stop  offset="0.6321" style="stop-color:#939B96"/>
							<stop  offset="1" style="stop-color:#54696E"/>
						</linearGradient>
						<polygon class="st9" points="167.2,173.6 678.3,148.4 678.7,155.9 167.6,181.1 						"/>
					</g>
					<g id="XMLID_485_">
						
							<linearGradient id="SVGID_7_" gradientUnits="userSpaceOnUse" x1="442.1542" y1="164.7912" x2="442.1542" y2="532.2953" gradientTransform="matrix(0.9988 -4.930000e-02 4.930000e-02 0.9988 -31.0502 -63.4936)">
							<stop  offset="0" style="stop-color:#F2E7D3"/>
							<stop  offset="0.2018" style="stop-color:#D7D2C2"/>
							<stop  offset="0.6321" style="stop-color:#939B96"/>
							<stop  offset="1" style="stop-color:#54696E"/>
						</linearGradient>
						<polygon class="st10" points="168.1,191.9 679.2,166.7 679.6,174.2 168.5,199.4 						"/>
					</g>
					<g id="XMLID_484_">
						
							<linearGradient id="SVGID_8_" gradientUnits="userSpaceOnUse" x1="442.1534" y1="164.7337" x2="442.1534" y2="532.2379" gradientTransform="matrix(0.9988 -4.930000e-02 4.930000e-02 0.9988 -31.0502 -63.4936)">
							<stop  offset="0" style="stop-color:#F2E7D3"/>
							<stop  offset="0.2018" style="stop-color:#D7D2C2"/>
							<stop  offset="0.6321" style="stop-color:#939B96"/>
							<stop  offset="1" style="stop-color:#54696E"/>
						</linearGradient>
						<polygon class="st11" points="169,210.2 680.1,185 680.5,192.5 169.4,217.7 						"/>
					</g>
					<g id="XMLID_483_">
						
							<linearGradient id="SVGID_9_" gradientUnits="userSpaceOnUse" x1="442.1526" y1="164.6755" x2="442.1526" y2="532.1797" gradientTransform="matrix(0.9988 -4.930000e-02 4.930000e-02 0.9988 -31.0502 -63.4936)">
							<stop  offset="0" style="stop-color:#F2E7D3"/>
							<stop  offset="0.2018" style="stop-color:#D7D2C2"/>
							<stop  offset="0.6321" style="stop-color:#939B96"/>
							<stop  offset="1" style="stop-color:#54696E"/>
						</linearGradient>
						<polygon class="st12" points="169.9,228.5 681,203.3 681.4,210.8 170.3,236 						"/>
					</g>
					<g id="XMLID_482_">
						
							<linearGradient id="SVGID_10_" gradientUnits="userSpaceOnUse" x1="442.1517" y1="164.6173" x2="442.1517" y2="532.1215" gradientTransform="matrix(0.9988 -4.930000e-02 4.930000e-02 0.9988 -31.0502 -63.4936)">
							<stop  offset="0" style="stop-color:#F2E7D3"/>
							<stop  offset="0.2018" style="stop-color:#D7D2C2"/>
							<stop  offset="0.6321" style="stop-color:#939B96"/>
							<stop  offset="1" style="stop-color:#54696E"/>
						</linearGradient>
						<polygon class="st13" points="170.8,246.7 681.9,221.5 682.3,229 171.2,254.3 						"/>
					</g>
					<g id="XMLID_481_">
						
							<linearGradient id="SVGID_11_" gradientUnits="userSpaceOnUse" x1="442.1509" y1="164.559" x2="442.1509" y2="532.0634" gradientTransform="matrix(0.9988 -4.930000e-02 4.930000e-02 0.9988 -31.0502 -63.4936)">
							<stop  offset="0" style="stop-color:#F2E7D3"/>
							<stop  offset="0.2018" style="stop-color:#D7D2C2"/>
							<stop  offset="0.6321" style="stop-color:#939B96"/>
							<stop  offset="1" style="stop-color:#54696E"/>
						</linearGradient>
						<polygon class="st14" points="171.7,265 682.8,239.8 683.2,247.3 172.1,272.5 						"/>
					</g>
					<g id="XMLID_480_">
						
							<linearGradient id="SVGID_12_" gradientUnits="userSpaceOnUse" x1="442.15" y1="164.5009" x2="442.15" y2="532.005" gradientTransform="matrix(0.9988 -4.930000e-02 4.930000e-02 0.9988 -31.0502 -63.4936)">
							<stop  offset="0" style="stop-color:#F2E7D3"/>
							<stop  offset="0.2018" style="stop-color:#D7D2C2"/>
							<stop  offset="0.6321" style="stop-color:#939B96"/>
							<stop  offset="1" style="stop-color:#54696E"/>
						</linearGradient>
						<polygon class="st15" points="172.6,283.3 683.7,258.1 684.1,265.6 173,290.8 						"/>
					</g>
					<g id="XMLID_479_">
						
							<linearGradient id="SVGID_13_" gradientUnits="userSpaceOnUse" x1="442.1492" y1="164.4435" x2="442.1492" y2="531.9476" gradientTransform="matrix(0.9988 -4.930000e-02 4.930000e-02 0.9988 -31.0502 -63.4936)">
							<stop  offset="0" style="stop-color:#F2E7D3"/>
							<stop  offset="0.2018" style="stop-color:#D7D2C2"/>
							<stop  offset="0.6321" style="stop-color:#939B96"/>
							<stop  offset="1" style="stop-color:#54696E"/>
						</linearGradient>
						<polygon class="st16" points="173.5,301.6 684.6,276.4 685,283.9 173.9,309.1 						"/>
					</g>
					<g id="XMLID_478_">
						
							<linearGradient id="SVGID_14_" gradientUnits="userSpaceOnUse" x1="442.1483" y1="164.3852" x2="442.1483" y2="531.8894" gradientTransform="matrix(0.9988 -4.930000e-02 4.930000e-02 0.9988 -31.0502 -63.4936)">
							<stop  offset="0" style="stop-color:#F2E7D3"/>
							<stop  offset="0.2018" style="stop-color:#D7D2C2"/>
							<stop  offset="0.6321" style="stop-color:#939B96"/>
							<stop  offset="1" style="stop-color:#54696E"/>
						</linearGradient>
						<polygon class="st17" points="174.4,319.9 685.5,294.7 685.9,302.2 174.8,327.4 						"/>
					</g>
					<g id="XMLID_477_">
						
							<linearGradient id="SVGID_15_" gradientUnits="userSpaceOnUse" x1="442.1475" y1="164.327" x2="442.1475" y2="531.8312" gradientTransform="matrix(0.9988 -4.930000e-02 4.930000e-02 0.9988 -31.0502 -63.4936)">
							<stop  offset="0" style="stop-color:#F2E7D3"/>
							<stop  offset="0.2018" style="stop-color:#D7D2C2"/>
							<stop  offset="0.6321" style="stop-color:#939B96"/>
							<stop  offset="1" style="stop-color:#54696E"/>
						</linearGradient>
						<polygon class="st18" points="175.3,338.2 686.4,313 686.8,320.5 175.7,345.7 						"/>
					</g>
					<g id="XMLID_476_">
						
							<linearGradient id="SVGID_16_" gradientUnits="userSpaceOnUse" x1="442.1466" y1="164.2688" x2="442.1466" y2="531.7729" gradientTransform="matrix(0.9988 -4.930000e-02 4.930000e-02 0.9988 -31.0502 -63.4936)">
							<stop  offset="0" style="stop-color:#F2E7D3"/>
							<stop  offset="0.2018" style="stop-color:#D7D2C2"/>
							<stop  offset="0.6321" style="stop-color:#939B96"/>
							<stop  offset="1" style="stop-color:#54696E"/>
						</linearGradient>
						<polygon class="st19" points="176.2,356.4 687.3,331.2 687.7,338.8 176.6,364 						"/>
					</g>
					<g id="XMLID_475_">
						
							<linearGradient id="SVGID_17_" gradientUnits="userSpaceOnUse" x1="442.1457" y1="164.2114" x2="442.1457" y2="531.7156" gradientTransform="matrix(0.9988 -4.930000e-02 4.930000e-02 0.9988 -31.0502 -63.4936)">
							<stop  offset="0" style="stop-color:#F2E7D3"/>
							<stop  offset="0.2018" style="stop-color:#D7D2C2"/>
							<stop  offset="0.6321" style="stop-color:#939B96"/>
							<stop  offset="1" style="stop-color:#54696E"/>
						</linearGradient>
						<polygon class="st20" points="177.1,374.7 688.2,349.5 688.6,357 177.5,382.2 						"/>
					</g>
					<g id="XMLID_474_">
						
							<linearGradient id="SVGID_18_" gradientUnits="userSpaceOnUse" x1="442.1449" y1="164.153" x2="442.1449" y2="531.6575" gradientTransform="matrix(0.9988 -4.930000e-02 4.930000e-02 0.9988 -31.0502 -63.4936)">
							<stop  offset="0" style="stop-color:#F2E7D3"/>
							<stop  offset="0.2018" style="stop-color:#D7D2C2"/>
							<stop  offset="0.6321" style="stop-color:#939B96"/>
							<stop  offset="1" style="stop-color:#54696E"/>
						</linearGradient>
						<polygon class="st21" points="178,393 689.1,367.8 689.5,375.3 178.4,400.5 						"/>
					</g>
					<g id="XMLID_473_">
						
							<linearGradient id="SVGID_19_" gradientUnits="userSpaceOnUse" x1="442.144" y1="164.095" x2="442.144" y2="531.5992" gradientTransform="matrix(0.9988 -4.930000e-02 4.930000e-02 0.9988 -31.0502 -63.4936)">
							<stop  offset="0" style="stop-color:#F2E7D3"/>
							<stop  offset="0.2018" style="stop-color:#D7D2C2"/>
							<stop  offset="0.6321" style="stop-color:#939B96"/>
							<stop  offset="1" style="stop-color:#54696E"/>
						</linearGradient>
						<polygon class="st22" points="178.9,411.3 690,386.1 690.4,393.6 179.3,418.8 						"/>
					</g>
					<g id="XMLID_472_">
						
							<linearGradient id="SVGID_20_" gradientUnits="userSpaceOnUse" x1="442.1432" y1="164.0368" x2="442.1432" y2="531.541" gradientTransform="matrix(0.9988 -4.930000e-02 4.930000e-02 0.9988 -31.0502 -63.4936)">
							<stop  offset="0" style="stop-color:#F2E7D3"/>
							<stop  offset="0.2018" style="stop-color:#D7D2C2"/>
							<stop  offset="0.6321" style="stop-color:#939B96"/>
							<stop  offset="1" style="stop-color:#54696E"/>
						</linearGradient>
						<polygon class="st23" points="179.8,429.6 690.9,404.4 691.3,411.9 180.2,437.1 						"/>
					</g>
					<g id="XMLID_471_">
						
							<linearGradient id="SVGID_21_" gradientUnits="userSpaceOnUse" x1="442.1423" y1="163.9793" x2="442.1423" y2="531.4835" gradientTransform="matrix(0.9988 -4.930000e-02 4.930000e-02 0.9988 -31.0502 -63.4936)">
							<stop  offset="0" style="stop-color:#F2E7D3"/>
							<stop  offset="0.2018" style="stop-color:#D7D2C2"/>
							<stop  offset="0.6321" style="stop-color:#939B96"/>
							<stop  offset="1" style="stop-color:#54696E"/>
						</linearGradient>
						<polygon class="st24" points="180.7,447.9 691.8,422.7 692.2,430.2 181.1,455.4 						"/>
					</g>
				</g>
			</g>
		</g>
		<polygon id="XMLID_1701_" class="st1" points="425.3,95.1 305.2,192.7 559.8,180.1 		"/>
		<g id="XMLID_1694_">
			
				<rect id="XMLID_1698_" x="339.1" y="204.6" transform="matrix(0.9988 -4.925393e-02 4.925393e-02 0.9988 -11.5358 18.1834)" class="st1" width="48.2" height="77"/>
			
				<rect id="XMLID_1697_" x="343" y="210.9" transform="matrix(0.9988 -4.925372e-02 4.925372e-02 0.9988 -11.5357 18.1833)" class="st25" width="40.3" height="64.5"/>
			
				<rect id="XMLID_1696_" x="345.5" y="214.9" transform="matrix(0.9988 -4.925212e-02 4.925212e-02 0.9988 -11.5354 18.1827)" class="st26" width="35.4" height="56.6"/>
			
				<rect id="XMLID_1695_" x="345.5" y="241.1" transform="matrix(0.9988 -4.925212e-02 4.925212e-02 0.9988 -11.5354 18.1827)" class="st25" width="35.4" height="4.1"/>
		</g>
		<g id="XMLID_1687_">
			
				<rect id="XMLID_1691_" x="466.1" y="198.4" transform="matrix(0.9988 -4.925176e-02 4.925176e-02 0.9988 -11.0728 24.4291)" class="st1" width="48.2" height="77"/>
			
				<rect id="XMLID_1690_" x="470" y="204.7" transform="matrix(0.9988 -4.925372e-02 4.925372e-02 0.9988 -11.0732 24.4301)" class="st25" width="40.3" height="64.5"/>
			
				<rect id="XMLID_1689_" x="472.5" y="208.6" transform="matrix(0.9988 -4.925494e-02 4.925494e-02 0.9988 -11.0734 24.4307)" class="st26" width="35.4" height="56.6"/>
			
				<rect id="XMLID_1688_" x="472.5" y="234.8" transform="matrix(0.9988 -4.925494e-02 4.925494e-02 0.9988 -11.0734 24.4307)" class="st25" width="35.4" height="4.1"/>
		</g>
		<polygon id="XMLID_1684_" class="st1" points="217.6,278.7 654.4,257.1 630.1,262.3 242.3,281.4 		"/>
		<g id="XMLID_1649_">
			<g>
				<g id="XMLID_354_">
					
						<rect x="228.7" y="273.2" transform="matrix(0.9988 -4.926156e-02 4.926156e-02 0.9988 -14.3534 11.7542)" class="st25" width="5.2" height="47.6"/>
				</g>
				<g id="XMLID_353_">
					
						<rect x="274.3" y="271" transform="matrix(0.9988 -4.924225e-02 4.924225e-02 0.9988 -14.1818 13.9923)" class="st25" width="5.2" height="47.6"/>
				</g>
				<g id="XMLID_351_">
					
						<rect x="319.9" y="268.8" transform="matrix(0.9988 -4.924225e-02 4.924225e-02 0.9988 -14.0158 16.2352)" class="st25" width="5.2" height="47.6"/>
				</g>
				<g id="XMLID_348_">
					
						<rect x="365.5" y="266.5" transform="matrix(0.9988 -4.924225e-02 4.924225e-02 0.9988 -13.8497 18.478)" class="st25" width="5.2" height="47.6"/>
				</g>
				<g id="XMLID_347_">
					
						<rect x="411.1" y="264.3" transform="matrix(0.9988 -4.926156e-02 4.926156e-02 0.9988 -13.6888 20.7291)" class="st25" width="5.2" height="47.6"/>
				</g>
				<g id="XMLID_345_">
					
						<rect x="456.7" y="262" transform="matrix(0.9988 -4.926156e-02 4.926156e-02 0.9988 -13.5227 22.9729)" class="st25" width="5.2" height="47.6"/>
				</g>
				<g id="XMLID_344_">
					
						<rect x="502.3" y="259.8" transform="matrix(0.9988 -4.926252e-02 4.926252e-02 0.9988 -13.3568 25.2171)" class="st25" width="5.2" height="47.6"/>
				</g>
				<g id="XMLID_342_">
					
						<rect x="547.9" y="257.5" transform="matrix(0.9988 -4.924320e-02 4.924320e-02 0.9988 -13.1857 27.45)" class="st25" width="5.2" height="47.6"/>
				</g>
				<g id="XMLID_341_">
					
						<rect x="593.5" y="255.3" transform="matrix(0.9988 -4.924320e-02 4.924320e-02 0.9988 -13.0196 29.6929)" class="st25" width="5.2" height="47.6"/>
				</g>
				<g id="XMLID_340_">
					
						<rect x="639.1" y="253" transform="matrix(0.9988 -4.924320e-02 4.924320e-02 0.9988 -12.8536 31.9358)" class="st25" width="5.2" height="47.6"/>
				</g>
			</g>
		</g>
		<linearGradient id="XMLID_14_" gradientUnits="userSpaceOnUse" x1="219.3871" y1="310.7234" x2="656.8433" y2="310.7234">
			<stop  offset="0" style="stop-color:#FFFFFF"/>
			<stop  offset="1" style="stop-color:#BCCEE6"/>
		</linearGradient>
		<polygon id="XMLID_1646_" class="st27" points="219.4,314.9 656.2,293.3 656.8,306.6 220,328.1 		"/>
		<linearGradient id="XMLID_15_" gradientUnits="userSpaceOnUse" x1="217.0404" y1="263.1362" x2="654.4966" y2="263.1362">
			<stop  offset="0" style="stop-color:#FFFFFF"/>
			<stop  offset="1" style="stop-color:#BCCEE6"/>
		</linearGradient>
		<polygon id="XMLID_1643_" class="st28" points="217,267.3 653.8,245.7 654.5,259 217.7,280.5 		"/>
		<path id="XMLID_1640_" class="st29" d="M217,267.3c0,0,27.3-1.5,68.2-3.8c20.5-1.1,44.4-2.3,69.9-3.7c25.6-1.3,52.9-2.7,80.2-4.1
			c27.3-1.3,54.6-2.6,80.2-3.9c25.6-1.2,49.5-2.3,70-3.2c41-1.8,68.3-3,68.3-3s-27.3,1.5-68.2,3.8c-20.5,1.1-44.4,2.3-69.9,3.7
			c-25.6,1.3-52.9,2.7-80.2,4.1c-27.3,1.3-54.6,2.6-80.2,3.9c-25.6,1.2-49.5,2.3-70,3.2C244.3,266.1,217,267.3,217,267.3z"/>
		<path id="XMLID_1637_" class="st29" d="M219.4,314.9c0,0,27.3-1.5,68.2-3.8c20.5-1.1,44.4-2.3,69.9-3.7
			c25.6-1.3,52.9-2.7,80.2-4.1c27.3-1.3,54.6-2.6,80.2-3.9c25.6-1.2,49.5-2.3,70-3.2c41-1.8,68.3-3,68.3-3s-27.3,1.5-68.2,3.8
			c-20.5,1.1-44.4,2.3-69.9,3.7c-25.6,1.3-52.9,2.7-80.2,4.1c-27.3,1.3-54.6,2.6-80.2,3.9c-25.6,1.2-49.5,2.3-70,3.2
			C246.7,313.7,219.4,314.9,219.4,314.9z"/>
		<g id="XMLID_1624_">
			<polygon id="XMLID_1634_" class="st26" points="474,138.1 433,113.5 436.3,179.4 443.1,179.1 			"/>
			<polygon id="XMLID_1631_" class="st26" points="379,144.5 412.3,180.6 419.4,180.2 416.2,114.7 			"/>
			<polygon id="XMLID_1628_" class="st26" points="374.5,148.2 328.9,184.7 404.7,180.9 			"/>
			<polygon id="XMLID_1625_" class="st26" points="479,141.2 450.7,178.7 534.4,174.5 			"/>
		</g>
		<g id="XMLID_1620_">
			<linearGradient id="XMLID_17_" gradientUnits="userSpaceOnUse" x1="272.2087" y1="329.5513" x2="281.0368" y2="329.5513">
				<stop  offset="0" style="stop-color:#B7ECED"/>
				<stop  offset="1" style="stop-color:#6D8591"/>
			</linearGradient>
			<polygon id="XMLID_1623_" class="st30" points="281,333.6 272.6,334 272.2,325.6 280.6,325.1 			"/>
			<linearGradient id="XMLID_18_" gradientUnits="userSpaceOnUse" x1="280.6219" y1="340.6063" x2="290.3844" y2="340.6063">
				<stop  offset="0" style="stop-color:#B7ECED"/>
				<stop  offset="1" style="stop-color:#6D8591"/>
			</linearGradient>
			<polygon id="XMLID_1622_" class="st31" points="280.6,325.1 281,333.6 290.4,356.5 288.8,324.7 			"/>
			<linearGradient id="XMLID_19_" gradientUnits="userSpaceOnUse" x1="279.2274" y1="332.9289" x2="284.0151" y2="358.7827">
				<stop  offset="0" style="stop-color:#6D8591"/>
				<stop  offset="1" style="stop-color:#B7ECED"/>
			</linearGradient>
			<path id="XMLID_1621_" class="st32" d="M281,333.6c0,0,6.2,6.3,9.3,22.9l-7.8,0.4c0,0-1.9-14.9-9.9-22.9L281,333.6z"/>
		</g>
		<g id="XMLID_1616_">
			<linearGradient id="XMLID_20_" gradientUnits="userSpaceOnUse" x1="598.3244" y1="313.4697" x2="607.1525" y2="313.4697">
				<stop  offset="0" style="stop-color:#6D8591"/>
				<stop  offset="1" style="stop-color:#B7ECED"/>
			</linearGradient>
			<polygon id="XMLID_1619_" class="st33" points="598.7,317.9 607.2,317.5 606.7,309.1 598.3,309.5 			"/>
			<linearGradient id="XMLID_21_" gradientUnits="userSpaceOnUse" x1="590.1274" y1="325.5459" x2="598.7392" y2="325.5459">
				<stop  offset="0" style="stop-color:#6D8591"/>
				<stop  offset="1" style="stop-color:#B7ECED"/>
			</linearGradient>
			<polygon id="XMLID_1618_" class="st34" points="598.3,309.5 598.7,317.9 591.7,341.6 590.1,309.9 			"/>
			<linearGradient id="XMLID_22_" gradientUnits="userSpaceOnUse" x1="599.4227" y1="317.5836" x2="599.4227" y2="340.7017">
				<stop  offset="0" style="stop-color:#6D8591"/>
				<stop  offset="1" style="stop-color:#B7ECED"/>
			</linearGradient>
			<path id="XMLID_1617_" class="st35" d="M598.7,317.9c0,0-5.6,6.9-7,23.7l7.8-0.4c0,0,0.4-15,7.6-23.8L598.7,317.9z"/>
		</g>
		
			<linearGradient id="XMLID_29_" gradientUnits="userSpaceOnUse" x1="452.1657" y1="411.9477" x2="452.1657" y2="436.539" gradientTransform="matrix(0.9988 -4.930000e-02 4.930000e-02 0.9988 -31.0502 -63.4936)">
			<stop  offset="0" style="stop-color:#6D8591"/>
			<stop  offset="1" style="stop-color:#B7ECED"/>
		</linearGradient>
		<polygon id="XMLID_1615_" class="st36" points="439.2,350.4 445,350.1 443.8,325.5 437.9,325.8 		"/>
		
			<linearGradient id="XMLID_34_" gradientUnits="userSpaceOnUse" x1="447.9546" y1="407.7361" x2="456.3783" y2="407.7361" gradientTransform="matrix(0.9988 -4.930000e-02 4.930000e-02 0.9988 -31.0502 -63.4936)">
			<stop  offset="0" style="stop-color:#6D8591"/>
			<stop  offset="1" style="stop-color:#B7ECED"/>
		</linearGradient>
		<polygon id="XMLID_1614_" class="st37" points="436.7,325.9 445.1,325.5 444.7,317 436.3,317.5 		"/>
		
			<linearGradient id="XMLID_35_" gradientUnits="userSpaceOnUse" x1="241.6486" y1="541.8422" x2="662.7228" y2="541.8422" gradientTransform="matrix(0.9988 -4.930000e-02 4.930000e-02 0.9988 -31.0502 -63.4936)">
			<stop  offset="0" style="stop-color:#6D8591"/>
			<stop  offset="1" style="stop-color:#B7ECED"/>
		</linearGradient>
		<polygon id="XMLID_1613_" class="st38" points="236.8,461.4 657.4,440.6 657.8,449.5 237.2,470.2 		"/>
		
			<linearGradient id="XMLID_37_" gradientUnits="userSpaceOnUse" x1="241.648" y1="555.1207" x2="662.7222" y2="555.1207" gradientTransform="matrix(0.9988 -4.930000e-02 4.930000e-02 0.9988 -31.0502 -63.4936)">
			<stop  offset="0" style="stop-color:#6D8591"/>
			<stop  offset="1" style="stop-color:#B7ECED"/>
		</linearGradient>
		<polygon id="XMLID_1612_" class="st39" points="237.5,474.6 658,453.9 658.5,462.7 237.9,483.5 		"/>
		
			<rect id="XMLID_1609_" x="237.3" y="464.2" transform="matrix(0.9988 -4.925282e-02 4.925282e-02 0.9988 -22.3842 22.6206)" class="st29" width="421.1" height="2.5"/>
		
			<rect id="XMLID_1606_" x="250.5" y="459.8" transform="matrix(0.9988 -4.925268e-02 4.925268e-02 0.9988 -22.2133 22.6079)" class="st1" width="394.3" height="4.4"/>
		
			<linearGradient id="XMLID_38_" gradientUnits="userSpaceOnUse" x1="241.6474" y1="568.3991" x2="662.7215" y2="568.3991" gradientTransform="matrix(0.9988 -4.930000e-02 4.930000e-02 0.9988 -31.0502 -63.4936)">
			<stop  offset="0" style="stop-color:#6D8591"/>
			<stop  offset="1" style="stop-color:#B7ECED"/>
		</linearGradient>
		<polygon id="XMLID_1605_" class="st40" points="238.1,487.9 658.7,467.1 659.1,476 238.5,496.7 		"/>
		
			<rect id="XMLID_1602_" x="237.9" y="477.5" transform="matrix(0.9988 -4.925282e-02 4.925282e-02 0.9988 -23.0366 22.6689)" class="st29" width="421.1" height="2.5"/>
		
			<rect id="XMLID_1599_" x="251.2" y="473.1" transform="matrix(0.9988 -4.925268e-02 4.925268e-02 0.9988 -22.8657 22.6562)" class="st1" width="394.3" height="4.4"/>
		
			<linearGradient id="XMLID_39_" gradientUnits="userSpaceOnUse" x1="245.8653" y1="406.8177" x2="256.0568" y2="406.8177" gradientTransform="matrix(0.9988 -4.930000e-02 4.930000e-02 0.9988 -31.0502 -63.4936)">
			<stop  offset="0" style="stop-color:#FFFFFF"/>
			<stop  offset="1" style="stop-color:#BCCEE6"/>
		</linearGradient>
		<polygon id="XMLID_1596_" class="st41" points="228.2,201 238.4,200.5 251.1,459.9 241,460.4 		"/>
		
			<linearGradient id="XMLID_40_" gradientUnits="userSpaceOnUse" x1="640.043" y1="406.8361" x2="650.2344" y2="406.8361" gradientTransform="matrix(0.9988 -4.930000e-02 4.930000e-02 0.9988 -31.0502 -63.4936)">
			<stop  offset="0" style="stop-color:#FFFFFF"/>
			<stop  offset="1" style="stop-color:#BCCEE6"/>
		</linearGradient>
		<polygon id="XMLID_1593_" class="st42" points="621.9,181.6 632.1,181.1 644.9,440.5 634.7,441 		"/>
		<g id="XMLID_1586_">
			
				<rect id="XMLID_1590_" x="314.5" y="342.5" transform="matrix(0.9988 -4.925393e-02 4.925393e-02 0.9988 -18.3533 17.1407)" class="st1" width="48.2" height="77"/>
			
				<rect id="XMLID_1589_" x="318.5" y="348.7" transform="matrix(0.9988 -4.925372e-02 4.925372e-02 0.9988 -18.3532 17.1406)" class="st25" width="40.3" height="64.5"/>
			
				<rect id="XMLID_1588_" x="320.9" y="352.7" transform="matrix(0.9988 -4.925212e-02 4.925212e-02 0.9988 -18.3526 17.14)" class="st26" width="35.4" height="56.6"/>
			
				<rect id="XMLID_1587_" x="320.9" y="378.9" transform="matrix(0.9988 -4.925213e-02 4.925213e-02 0.9988 -18.3526 17.14)" class="st25" width="35.4" height="4.1"/>
		</g>
		<g id="XMLID_1579_">
			
				<rect id="XMLID_1583_" x="369.9" y="339.7" transform="matrix(0.9988 -4.925176e-02 4.925176e-02 0.9988 -18.1509 19.8629)" class="st1" width="48.2" height="77"/>
			
				<rect id="XMLID_1582_" x="373.8" y="346" transform="matrix(0.9988 -4.925125e-02 4.925125e-02 0.9988 -18.1507 19.8627)" class="st25" width="40.3" height="64.5"/>
			
				<rect id="XMLID_1581_" x="376.3" y="349.9" transform="matrix(0.9988 -4.925212e-02 4.925212e-02 0.9988 -18.151 19.8631)" class="st26" width="35.4" height="56.6"/>
			
				<rect id="XMLID_1580_" x="376.3" y="376.2" transform="matrix(0.9988 -4.925213e-02 4.925213e-02 0.9988 -18.151 19.8631)" class="st25" width="35.4" height="4.1"/>
		</g>
		<g id="XMLID_1572_">
			
				<rect id="XMLID_1576_" x="484.1" y="331.8" transform="matrix(0.9988 -4.925396e-02 4.925396e-02 0.9988 -18.5717 25.7265)" class="st1" width="57.2" height="115.8"/>
			
				<rect id="XMLID_1575_" x="489.7" y="339.2" transform="matrix(0.9988 -4.925290e-02 4.925290e-02 0.9988 -18.6425 25.7312)" class="st25" width="46.1" height="104"/>
			
				<rect id="XMLID_1574_" x="497.9" y="346.9" transform="matrix(0.9988 -4.925506e-02 4.925506e-02 0.9988 -17.9831 25.6835)" class="st26" width="28.4" height="61.6"/>
			
				<rect id="XMLID_1573_" x="497.5" y="368" transform="matrix(0.9988 -4.925155e-02 4.925155e-02 0.9988 -17.5763 25.6516)" class="st25" width="28.4" height="3"/>
		</g>
		<polygon id="XMLID_1569_" class="st1" points="290.4,356.5 307.5,327.1 577.7,313.8 591.7,341.6 590.1,309.9 288.8,324.7 		"/>
		
			<rect id="XMLID_1566_" x="236.6" y="451" transform="matrix(0.9988 -4.925258e-02 4.925258e-02 0.9988 -21.7317 22.5722)" class="st29" width="421.1" height="2.5"/>
		<g id="XMLID_1553_">
			<g id="XMLID_1562_">
				<polygon id="XMLID_1563_" class="st1" points="688.5,227.1 418.9,64.6 185.5,251.7 169.8,232.1 416.8,34.1 701.4,205.6 				"/>
			</g>
			<g id="XMLID_1554_">
				<polygon id="XMLID_1559_" class="st25" points="416.8,34.1 701.4,205.6 706.5,208.7 709.5,203.6 704.5,200.6 419.9,29 
					416.4,26.9 413.1,29.5 166.2,227.5 161.6,231.2 165.2,235.8 169.8,232.1 				"/>
				<polygon id="XMLID_1556_" class="st25" points="688.5,227.1 418.9,64.6 185.5,251.7 180.9,255.4 184.6,260 189.2,256.3 
					419.4,71.8 685.4,232.2 690.5,235.2 693.5,230.2 				"/>
				<path id="XMLID_1555_" class="st29" d="M184.6,260l14.5-12l14.5-11.9l29.1-23.8l58.4-47.4l29.2-23.7l29.3-23.6l58.6-47.1l1-0.8
					l1.1,0.7l67.7,40.9l33.8,20.5c11.3,6.8,22.6,13.7,33.8,20.6l67.5,41.3l33.7,20.8l16.8,10.4l16.8,10.5l-17.1-10l-17.1-10
					l-34.1-20.1l-68.1-40.4c-11.4-6.7-22.7-13.5-34-20.3l-34-20.3l-67.8-40.8l2.1-0.1l-58.8,47l-29.4,23.4l-29.5,23.4l-59,46.7
					l-29.6,23.2l-14.8,11.6L184.6,260z"/>
			</g>
		</g>
	</g>
	<g id="XMLID_11_">
		
			<rect id="XMLID_364_" x="198.8" y="465.4" transform="matrix(0.9991 -4.156847e-02 4.156847e-02 0.9991 -19.7936 9.3081)" class="st43" width="30.2" height="30.4"/>
		
			<rect id="XMLID_361_" x="234.6" y="451.1" transform="matrix(0.9991 -4.156521e-02 4.156521e-02 0.9991 -19.4412 10.556)" class="st43" width="19" height="43.5"/>
		
			<rect id="XMLID_358_" x="244.1" y="450.7" transform="matrix(0.9991 -4.156543e-02 4.156543e-02 0.9991 -19.4167 10.9497)" class="st44" width="19" height="43.5"/>
		
			<rect id="XMLID_355_" x="207.7" y="465.1" transform="matrix(0.9991 -4.156516e-02 4.156516e-02 0.9991 -19.7691 9.675)" class="st44" width="30.2" height="30.4"/>
		
			<rect id="XMLID_352_" x="257.7" y="463" transform="matrix(0.9991 -4.156861e-02 4.156861e-02 0.9991 -19.6408 11.7556)" class="st43" width="30.2" height="30.4"/>
		
			<rect id="XMLID_349_" x="266.6" y="462.6" transform="matrix(0.9991 -4.156861e-02 4.156861e-02 0.9991 -19.6179 12.1233)" class="st44" width="30.2" height="30.4"/>
		<polygon id="XMLID_346_" class="st45" points="237.2,464.4 208.2,496 238.5,494.7 		"/>
		
			<rect id="XMLID_343_" x="244.6" y="475.3" transform="matrix(0.9991 -4.156733e-02 4.156733e-02 0.9991 -19.8812 10.8627)" class="st45" width="13.4" height="16.3"/>
		
			<rect id="XMLID_309_" x="217" y="478.5" transform="matrix(0.9991 -4.156895e-02 4.156895e-02 0.9991 -20.0273 10.2522)" class="st43" width="39" height="16.3"/>
		
			<rect id="XMLID_306_" x="224.6" y="478.2" transform="matrix(0.9991 -4.156649e-02 4.156649e-02 0.9991 -20.0063 10.5691)" class="st44" width="39" height="16.3"/>
		<polygon id="XMLID_305_" class="st46" points="303.1,454.2 272.9,455.5 266,463.2 296.2,462 		"/>
		<polygon id="XMLID_304_" class="st47" points="252.4,456.3 261.2,456 266,463.2 257.1,463.6 		"/>
	</g>
	<g id="XMLID_4_">
		
			<rect id="XMLID_65_" x="170.9" y="485.4" transform="matrix(0.9987 -5.081540e-02 5.081540e-02 0.9987 -24.3529 22.0364)" class="st0" width="500.6" height="9.2"/>
		
			<rect id="XMLID_28_" x="165.7" y="517.4" transform="matrix(0.9987 -5.081296e-02 5.081296e-02 0.9987 -26.4478 9.3178)" class="st48" width="8.6" height="14.8"/>
		
			<rect id="XMLID_5_" x="656.8" y="319.9" transform="matrix(0.9987 -5.081742e-02 5.081742e-02 0.9987 -19.968 34.1829)" class="st0" width="11" height="179.8"/>
		<path id="XMLID_210_" class="st0" d="M924.7,487.9c0,0-33.4,53.4-133.8,20.9c-100.4-32.5,100.3-81.2,116.7-58
			C924,473.9,924.7,487.9,924.7,487.9z"/>
		
			<linearGradient id="XMLID_41_" gradientUnits="userSpaceOnUse" x1="895.2678" y1="696.924" x2="894.7891" y2="744.8008" gradientTransform="matrix(0.989 -0.1479 0.1479 0.989 -143.6085 -98.9525)">
			<stop  offset="0" style="stop-color:#54696E"/>
			<stop  offset="0.161" style="stop-color:#586C71"/>
			<stop  offset="0.3198" style="stop-color:#647679"/>
			<stop  offset="0.4777" style="stop-color:#788788"/>
			<stop  offset="0.6351" style="stop-color:#939E9C"/>
			<stop  offset="0.7922" style="stop-color:#B7BBB6"/>
			<stop  offset="0.9471" style="stop-color:#E2DFD5"/>
			<stop  offset="1" style="stop-color:#F3EDE1"/>
		</linearGradient>
		<polygon id="XMLID_8_" class="st49" points="857.8,502.9 845.3,504.7 838.4,458.8 850.9,456.9 		"/>
		<path id="XMLID_213_" class="st50" d="M938.1,418.3c-1.6-0.8-2.9-2.2-3-4.4c-0.1-2.9,1.3-4.6,2.6-5.6c1.5-1.1,2.4-2.8,2.3-4.7
			c-0.1-2.1-1.4-3.9-3.3-4.7l-19.6-8.3c-15.3-6.5-31.8-9.4-48.4-8.5l-68.9,3.5l-27.6-52.2c-2.9-5.4-8.7-8.7-14.9-8.4l-60.9,3.1
			c-6.9,0.4-12.9,5.1-14.6,11.8l-11.7,44.8c-2.1,7.9-2.9,16.1-2.5,24.2l4.9,95.8c0.4,7.4,6.3,13.4,13.8,13.9
			c38.2,2.6,76.5,2.9,114.9,1.1c3.3-33.4,26.7-61,56.8-62.6c28-1.4,54.6,20.2,57.7,50.2c1.7-0.3,10-0.9,11.7-1.2
			c6.9-1.2,12-6.9,12.4-13.8l3.4-65.6C943.3,423.3,941.3,420,938.1,418.3z"/>
		<g id="XMLID_285_">
			<path id="XMLID_286_" class="st26" d="M782.2,396.9c12-1.7,17.6-11.2,17.6-11.2l-27.6-52.2c-2.9-5.4-8.7-8.7-14.9-8.4l-60.9,3.1
				c-6.9,0.4-12.9,5.1-14.6,11.8l-13.2,50.7c-1,3.9-1.4,8-1.2,12.1l0,0C691.4,401.8,772.1,398.3,782.2,396.9z"/>
			<linearGradient id="XMLID_43_" gradientUnits="userSpaceOnUse" x1="729.4398" y1="350.1993" x2="728.7732" y2="400.8659">
				<stop  offset="0" style="stop-color:#22303D"/>
				<stop  offset="1" style="stop-color:#2A776C"/>
			</linearGradient>
			<path id="XMLID_268_" class="st51" d="M788.6,389c-4.8-5.3-11.1-7.2-17.6-9c-1.2,1.7-2.3,3.5-3.2,5.4c-5,0.5-15.7,3.2-17.7,3.4
				c-1.8,0.2-4.1-0.4-5.7-0.9c-4.3-1.3-7.4-3.3-10.4-6.4c-3.8-3.9-7.3-4.2-12.5-5.6c0.1-0.7,0.2-3.6,0.2-3.4c2.6-1,5.6-1,6.4-4.3
				c0.7-2.8-0.1-6.7,0-9.6c1.7-0.3,8.2-1.2,8.8-3.2c1-2.8-9.7-0.8-11.1-0.8c-1.5-1.9-0.9-3.9-3.4-5.1c-2-1-4.6-0.4-6.8-0.2
				c-7.8,0.6-11,3.4-10.5,11.5c0.2,3.3,1.6,6.5,2.7,9.5c0.9,2.3,2.6,4.3,2.1,6.9c-0.6,2.9-2.4,5.2-2.6,8.5
				c-0.4-4.1-1.5-11.5-6.1-12.9c-2-0.6-4.7-0.2-6.9-0.2c-1,0-1.9-0.1-2.6,0l-9.6-32.6c-0.2,0-0.2,0-0.3,0l-13.2,50.7
				c-1,3.9-1.4,8-1.2,12.1c24.1-1,104.7-4.4,114.8-5.9c0.7-0.1,1.3-0.2,1.9-0.4c-0.7,0-1.3,0-2-0.1c1.9-0.3,3.8-0.7,5.7-1.5
				C791.2,393.5,790.9,391.6,788.6,389z M757.2,395.7c2.4-0.6,4.9-1.3,6.8-1.7c-0.3,0.6-0.5,1.3-0.8,1.9
				C761.2,395.8,759.2,395.7,757.2,395.7z"/>
		</g>
		<path id="XMLID_24_" class="st0" d="M455.6,511.5c-15.2-15.8-30.3-30.8-52.7-31.8c-28.1-1.4-61,2.4-75.4,29.7
			c-10.6,0.5-20.7,1.1-31.1,1.6c-0.8,7.4,7.1,14.8,27.9,21.6c90.9,29.4,126.9-11.6,132.9-19.6C456.6,512.5,456,512,455.6,511.5z"/>
		<path id="XMLID_44_" class="st0" d="M827.9,530.8l-39.9,2c-5,0.3-9.3-3.6-9.5-8.5l0,0l-99.6,5.1l0.4,7.4c0.2,4.1-3,7.6-7.1,7.8
			l-121.8,6.2c-4.1,0.2-7.7-2.9-7.9-7v0l-130,6.6l18.8-41.5l400.7,1.5L827.9,530.8z"/>
		
			<linearGradient id="XMLID_45_" gradientUnits="userSpaceOnUse" x1="439.5078" y1="521.9689" x2="439.5078" y2="582.7001" gradientTransform="matrix(0.9987 -5.080000e-02 5.080000e-02 0.9987 -46.8735 -56.5557)">
			<stop  offset="0" style="stop-color:#54696E"/>
			<stop  offset="0.1738" style="stop-color:#839090"/>
			<stop  offset="0.352" style="stop-color:#ABB1AD"/>
			<stop  offset="0.5274" style="stop-color:#CACBC4"/>
			<stop  offset="0.6968" style="stop-color:#E1DED4"/>
			<stop  offset="0.8574" style="stop-color:#EEE9DE"/>
			<stop  offset="1" style="stop-color:#F3EDE1"/>
		</linearGradient>
		<path id="XMLID_25_" class="st52" d="M172.5,535.5c2,9.3,10.6,15.8,20.2,15.3l134.3-6.8c3.4-33.3,28.3-60.9,58.2-62.4
			c29.9-1.5,62.7,23.1,63.1,56.2L659.1,527c10.8-0.6,14.1-9.4,13.5-20.1l-1.3-25.1l-221.2,12l0,0c-5.7-11.9-17.4-19.8-30.6-20.6
			l-69.3,4.6c-8.6,1.6-16.4,6.2-21.9,13l-7.2,8.9l-149.8,7.6L172.5,535.5z"/>
		
			<linearGradient id="XMLID_46_" gradientUnits="userSpaceOnUse" x1="755.5283" y1="423.5183" x2="755.5283" y2="491.175" gradientTransform="matrix(0.9987 -5.080000e-02 5.080000e-02 0.9987 -46.8735 -56.5557)">
			<stop  offset="0" style="stop-color:#54696E"/>
			<stop  offset="5.185628e-02" style="stop-color:#718183"/>
			<stop  offset="0.1275" style="stop-color:#939D9C"/>
			<stop  offset="0.211" style="stop-color:#B1B6B1"/>
			<stop  offset="0.3026" style="stop-color:#C9CAC3"/>
			<stop  offset="0.4057" style="stop-color:#DCDAD0"/>
			<stop  offset="0.5269" style="stop-color:#E9E5DA"/>
			<stop  offset="0.6832" style="stop-color:#F1EBDF"/>
			<stop  offset="1" style="stop-color:#F3EDE1"/>
		</linearGradient>
		<path id="XMLID_186_" class="st53" d="M788.1,392l-13.3-45l3.2-2.6l-5.8-10.9c-2.9-5.4-8.7-8.7-14.9-8.4l-60.9,3.1
			c-6.9,0.4-12.9,5.1-14.6,11.8L679,351c2.7,4.1,4,9,3.4,14.1l-5.2,37.6l23.1-1.2l4.5-50.9c0.3-3.6,3.2-6.4,6.8-6.6l38.6-2
			c3.3-0.2,6.3,1.9,7.3,5.1l14.6,49.3c0.9,2.9,3.9,4.7,6.9,3.9l5.1-1.3C787.2,398.3,789,395.1,788.1,392z"/>
		<g id="XMLID_435_">
			<defs>
				<filter id="Adobe_OpacityMaskFilter" filterUnits="userSpaceOnUse" x="790.7" y="420" width="152.4" height="85.5">
					<feFlood  style="flood-color:white;flood-opacity:1" result="back"/>
					<feBlend  in="SourceGraphic" in2="back" mode="normal"/>
				</filter>
			</defs>
			<mask maskUnits="userSpaceOnUse" x="790.7" y="420" width="152.4" height="85.5" id="XMLID_48_">
				<g id="XMLID_936_" class="st54">
					<defs>
						<filter id="Adobe_OpacityMaskFilter_1_" filterUnits="userSpaceOnUse" x="790.7" y="420" width="152.4" height="85.5">
							<feFlood  style="flood-color:white;flood-opacity:1" result="back"/>
							<feBlend  in="SourceGraphic" in2="back" mode="normal"/>
						</filter>
					</defs>
					<mask maskUnits="userSpaceOnUse" x="790.7" y="420" width="152.4" height="85.5" id="XMLID_48_">
						<g id="XMLID_1438_" class="st55">
						</g>
					</mask>
					
						<linearGradient id="XMLID_49_" gradientUnits="userSpaceOnUse" x1="807.9841" y1="564.978" x2="964.2372" y2="564.978" gradientTransform="matrix(0.9987 -5.080000e-02 5.080000e-02 0.9987 -46.8735 -56.5557)">
						<stop  offset="0" style="stop-color:#FFFFFF"/>
						<stop  offset="0.2518" style="stop-color:#C3C3C3"/>
						<stop  offset="0.8297" style="stop-color:#2D2D2D"/>
						<stop  offset="1" style="stop-color:#000000"/>
					</linearGradient>
					<path id="XMLID_937_" class="st56" d="M940.4,420c-20.2,0.9-76,4-91,10.4c-18.4,7.9-47.5,28-58.6,75c0,0,33.3-69.4,90-71.9
						c28.6-1.3,49-2.1,62.2-2.6l0.2-4C943.3,424.3,942.2,421.8,940.4,420z"/>
				</g>
			</mask>
			<path id="XMLID_445_" class="st57" d="M940.4,420c-20.2,0.9-76,4-91,10.4c-18.4,7.9-47.5,28-58.6,75c0,0,33.3-69.4,90-71.9
				c28.6-1.3,49-2.1,62.2-2.6l0.2-4C943.3,424.3,942.2,421.8,940.4,420z"/>
		</g>
		<defs>
			<filter id="Adobe_OpacityMaskFilter_2_" filterUnits="userSpaceOnUse" x="719.5" y="405.2" width="220.3" height="31.7">
				<feFlood  style="flood-color:white;flood-opacity:1" result="back"/>
				<feBlend  in="SourceGraphic" in2="back" mode="normal"/>
			</filter>
		</defs>
		<mask maskUnits="userSpaceOnUse" x="719.5" y="405.2" width="220.3" height="31.7" id="XMLID_51_">
			<g id="XMLID_929_" class="st58">
				<defs>
					<filter id="Adobe_OpacityMaskFilter_3_" filterUnits="userSpaceOnUse" x="719.5" y="405.2" width="220.3" height="31.7">
						<feFlood  style="flood-color:white;flood-opacity:1" result="back"/>
						<feBlend  in="SourceGraphic" in2="back" mode="normal"/>
					</filter>
				</defs>
				<mask maskUnits="userSpaceOnUse" x="719.5" y="405.2" width="220.3" height="31.7" id="XMLID_51_">
					<g id="XMLID_1433_" class="st59">
					</g>
				</mask>
				
					<linearGradient id="XMLID_52_" gradientUnits="userSpaceOnUse" x1="851.0335" y1="518.5845" x2="851.4935" y2="528.9187" gradientTransform="matrix(0.9987 -5.080000e-02 5.080000e-02 0.9987 -46.8735 -56.5557)">
					<stop  offset="0" style="stop-color:#FFFFFF"/>
					<stop  offset="0.2518" style="stop-color:#C3C3C3"/>
					<stop  offset="0.8297" style="stop-color:#2D2D2D"/>
					<stop  offset="1" style="stop-color:#000000"/>
				</linearGradient>
				<path id="XMLID_930_" class="st60" d="M935,413.9c-0.1-2.9,1.3-4.6,2.6-5.6c1.1-0.8,1.9-1.9,2.2-3.2c-5.6,3.6-14.7,7.6-27.4,7.9
					c-23.1,0.6-131,9.2-131,9.2s-1.2,9.2-61.9,14.6c0,0,45.1-0.8,62.4-8.4c0,0,114.9-7.3,153.7-12.5
					C935.3,415.5,935.1,414.8,935,413.9z"/>
			</g>
		</mask>
		
			<linearGradient id="XMLID_56_" gradientUnits="userSpaceOnUse" x1="851.0335" y1="518.5845" x2="851.4935" y2="528.9187" gradientTransform="matrix(0.9987 -5.080000e-02 5.080000e-02 0.9987 -46.8735 -56.5557)">
			<stop  offset="0" style="stop-color:#521A2A"/>
			<stop  offset="1" style="stop-color:#591D2C"/>
		</linearGradient>
		<path id="XMLID_189_" class="st61" d="M935,413.9c-0.1-2.9,1.3-4.6,2.6-5.6c1.1-0.8,1.9-1.9,2.2-3.2c-5.6,3.6-14.7,7.6-27.4,7.9
			c-23.1,0.6-131,9.2-131,9.2s-1.2,9.2-61.9,14.6c0,0,45.1-0.8,62.4-8.4c0,0,114.9-7.3,153.7-12.5
			C935.3,415.5,935.1,414.8,935,413.9z"/>
		<g id="XMLID_221_">
			<path id="XMLID_224_" class="st62" d="M340.3,545.4c-2.2-27.5,18.6-50.9,46.5-52.4c27.9-1.4,52.2,19.7,54.4,47.2
				c2.2,27.5-18.6,50.9-46.5,52.4C366.9,594.1,342.5,572.9,340.3,545.4z"/>
			<path id="XMLID_226_" class="st63" d="M361.2,544.4c-1.3-16.1,10.9-29.8,27.2-30.7c16.3-0.8,30.6,11.6,31.9,27.7
				c1.3,16.1-10.9,29.8-27.2,30.7C376.8,572.9,362.5,560.5,361.2,544.4z"/>
			<path id="XMLID_227_" class="st64" d="M364.9,544.2c-1.1-14.1,9.6-26.1,23.9-26.9c14.3-0.7,26.8,10.1,27.9,24.2
				s-9.6,26.1-23.9,26.9C378.5,569.1,366,558.3,364.9,544.2z"/>
			<path id="XMLID_229_" class="st65" d="M377.5,543.5c-0.6-7.2,4.9-13.4,12.2-13.8c7.3-0.4,13.7,5.2,14.3,12.4
				c0.6,7.2-4.9,13.4-12.2,13.8C384.5,556.3,378.1,550.8,377.5,543.5z"/>
		</g>
		<g id="XMLID_6_">
			<path id="XMLID_16_" class="st62" d="M810.7,545.4c-2.2-27.5,18.6-50.9,46.5-52.4c27.9-1.4,52.2,19.7,54.4,47.2
				c2.2,27.5-18.6,50.9-46.5,52.4C837.3,594.1,812.9,572.9,810.7,545.4z"/>
			<path id="XMLID_13_" class="st63" d="M831.6,544.4c-1.3-16.1,10.9-29.8,27.2-30.7c16.3-0.8,30.6,11.6,31.9,27.7
				c1.3,16.1-10.9,29.8-27.2,30.7C847.2,572.9,832.9,560.5,831.6,544.4z"/>
			<path id="XMLID_10_" class="st64" d="M835.3,544.2c-1.1-14.1,9.6-26.1,23.9-26.9c14.3-0.7,26.8,10.1,27.9,24.2
				c1.1,14.1-9.6,26.1-23.9,26.9C848.9,569.1,836.4,558.3,835.3,544.2z"/>
			<path id="XMLID_7_" class="st65" d="M847.9,543.5c-0.6-7.2,4.9-13.4,12.2-13.8c7.3-0.4,13.7,5.2,14.3,12.4
				c0.6,7.2-4.9,13.4-12.2,13.8C854.9,556.3,848.5,550.8,847.9,543.5z"/>
		</g>
		
			<ellipse id="XMLID_214_" transform="matrix(0.9987 -5.081328e-02 5.081328e-02 0.9987 -20.5043 35.814)" class="st29" cx="694.1" cy="421.2" rx="6.2" ry="6.1"/>
		<defs>
			<filter id="Adobe_OpacityMaskFilter_4_" filterUnits="userSpaceOnUse" x="685.5" y="418.2" width="33.2" height="7.5">
				<feFlood  style="flood-color:white;flood-opacity:1" result="back"/>
				<feBlend  in="SourceGraphic" in2="back" mode="normal"/>
			</filter>
		</defs>
		<mask maskUnits="userSpaceOnUse" x="685.5" y="418.2" width="33.2" height="7.5" id="XMLID_58_">
			<g id="XMLID_803_" class="st66">
				<defs>
					<filter id="Adobe_OpacityMaskFilter_5_" filterUnits="userSpaceOnUse" x="685.5" y="418.2" width="33.2" height="7.5">
						<feFlood  style="flood-color:white;flood-opacity:1" result="back"/>
						<feBlend  in="SourceGraphic" in2="back" mode="normal"/>
					</filter>
				</defs>
				<mask maskUnits="userSpaceOnUse" x="685.5" y="418.2" width="33.2" height="7.5" id="XMLID_58_">
					<g id="XMLID_1427_" class="st67">
					</g>
				</mask>
				
					<linearGradient id="XMLID_61_" gradientUnits="userSpaceOnUse" x1="723.7302" y1="513.0494" x2="723.7302" y2="518.9731" gradientTransform="matrix(0.9987 -5.080000e-02 5.080000e-02 0.9987 -46.8735 -56.5557)">
					<stop  offset="0" style="stop-color:#000000"/>
					<stop  offset="0.1703" style="stop-color:#2D2D2D"/>
					<stop  offset="0.7482" style="stop-color:#C3C3C3"/>
					<stop  offset="1" style="stop-color:#FFFFFF"/>
				</linearGradient>
				<path id="XMLID_804_" class="st68" d="M715.8,424.3l-27.1,1.4c-1.7,0.1-3.1-1.2-3.2-2.9l0,0c-0.1-1.7,1.2-3.1,2.9-3.2l27.1-1.4
					c1.7-0.1,3.1,1.2,3.2,2.9l0,0C718.8,422.8,717.5,424.2,715.8,424.3z"/>
			</g>
		</mask>
		
			<linearGradient id="XMLID_62_" gradientUnits="userSpaceOnUse" x1="723.7302" y1="513.0494" x2="723.7302" y2="518.9731" gradientTransform="matrix(0.9987 -5.080000e-02 5.080000e-02 0.9987 -46.8735 -56.5557)">
			<stop  offset="0" style="stop-color:#591D2C"/>
			<stop  offset="1" style="stop-color:#521A2A"/>
		</linearGradient>
		<path id="XMLID_68_" class="st69" d="M715.8,424.3l-27.1,1.4c-1.7,0.1-3.1-1.2-3.2-2.9l0,0c-0.1-1.7,1.2-3.1,2.9-3.2l27.1-1.4
			c1.7-0.1,3.1,1.2,3.2,2.9l0,0C718.8,422.8,717.5,424.2,715.8,424.3z"/>
		<path id="XMLID_211_" class="st29" d="M715.8,423.1l-27.1,1.4c-1.7,0.1-3.1-1.2-3.2-2.9l0,0c-0.1-1.7,1.2-3.1,2.9-3.2l27.1-1.4
			c1.7-0.1,3.1,1.2,3.2,2.9l0,0C718.8,421.6,717.5,423.1,715.8,423.1z"/>
		<g id="XMLID_9_">
			<path id="XMLID_23_" class="st0" d="M668,334.3l-10.5,0.5l-0.2-4.7l10.5-0.5c1.3-0.1,2.4,0.9,2.5,2.2l0,0
				C670.3,333.2,669.3,334.3,668,334.3z"/>
			<path id="XMLID_26_" class="st0" d="M669.6,366.3l-10.5,0.5l-0.2-4.7l10.5-0.5c1.3-0.1,2.4,0.9,2.5,2.2l0,0
				C671.9,365.1,670.9,366.3,669.6,366.3z"/>
		</g>
		
			<rect id="XMLID_27_" x="167.7" y="515.4" transform="matrix(0.9987 -5.081294e-02 5.081294e-02 0.9987 -26.4403 9.4148)" class="st0" width="8.6" height="18.6"/>
		
			<rect id="XMLID_36_" x="292.1" y="518.1" transform="matrix(0.9987 -5.081799e-02 5.081799e-02 0.9987 -26.0292 16.0365)" class="st48" width="20.6" height="3.6"/>
		<g id="XMLID_47_">
			
				<rect id="XMLID_42_" x="457.3" y="505.7" transform="matrix(0.9987 -5.081510e-02 5.081510e-02 0.9987 -25.6017 24.4826)" class="st70" width="22.7" height="20"/>
			
				<rect id="XMLID_50_" x="480" y="504.6" transform="matrix(0.9987 -5.081488e-02 5.081488e-02 0.9987 -25.5135 25.6345)" class="st0" width="22.7" height="20"/>
			
				<rect id="XMLID_53_" x="502.7" y="503.4" transform="matrix(0.9987 -5.081510e-02 5.081510e-02 0.9987 -25.4256 26.7866)" class="st70" width="22.7" height="20"/>
			
				<rect id="XMLID_54_" x="525.4" y="502.3" transform="matrix(0.9987 -5.081488e-02 5.081488e-02 0.9987 -25.3375 27.9385)" class="st0" width="22.7" height="20"/>
			
				<rect id="XMLID_55_" x="548.1" y="501.1" transform="matrix(0.9987 -5.081510e-02 5.081510e-02 0.9987 -25.2496 29.0906)" class="st70" width="22.7" height="20"/>
			
				<rect id="XMLID_57_" x="570.8" y="500" transform="matrix(0.9987 -5.081507e-02 5.081507e-02 0.9987 -25.1616 30.2426)" class="st0" width="22.7" height="20"/>
			
				<rect id="XMLID_59_" x="593.5" y="498.8" transform="matrix(0.9987 -5.081930e-02 5.081930e-02 0.9987 -25.0756 31.3973)" class="st70" width="22.7" height="20"/>
			
				<rect id="XMLID_60_" x="616.2" y="497.7" transform="matrix(0.9987 -5.081510e-02 5.081510e-02 0.9987 -24.9855 32.5467)" class="st0" width="22.7" height="20"/>
			
				<rect id="XMLID_64_" x="638.9" y="496.5" transform="matrix(0.9987 -5.081488e-02 5.081488e-02 0.9987 -24.8974 33.6986)" class="st70" width="22.7" height="20"/>
		</g>
		<g id="XMLID_89_">
			
				<ellipse id="XMLID_73_" transform="matrix(0.9987 -5.081590e-02 5.081590e-02 0.9987 -19.401 40.6842)" class="st29" cx="790.4" cy="401.9" rx="4.9" ry="4.9"/>
			<g id="XMLID_69_">
				
					<ellipse id="XMLID_66_" transform="matrix(0.9987 -5.081394e-02 5.081394e-02 0.9987 -18.1389 41.5484)" class="st0" cx="808.1" cy="377.5" rx="3.4" ry="13"/>
				<g id="XMLID_67_">
					<path id="XMLID_72_" class="st0" d="M797.9,402.9l-7.3,0.4c-0.6,0-1.1-0.4-1.1-1c0-0.6,0.4-1.1,1-1.1l7.3-0.4
						c9.1-0.5,16.1-8.2,15.6-17.3l-0.3-6.2c0-0.6,0.4-1.1,1-1.1c0.6,0,1.1,0.4,1.1,1l0.3,6.2C816.1,393.6,808.1,402.4,797.9,402.9z"
						/>
				</g>
				<g id="XMLID_70_">
					<path id="XMLID_71_" class="st0" d="M817.6,379.8l-7.9,0.4c-0.6,0-1.1-0.4-1.1-1c0-0.6,0.4-1.1,1-1.1l7.9-0.4
						c0.6,0,1.1,0.4,1.1,1C818.7,379.2,818.2,379.7,817.6,379.8z"/>
				</g>
			</g>
		</g>
	</g>
</g>
</svg>
