<?xml version="1.0" encoding="utf-8"?>
<!-- Generator: Adobe Illustrator 19.0.0, SVG Export Plug-In . SVG Version: 6.00 Build 0)  -->
<svg version="1.1" id="Layer_1" xmlns="http://www.w3.org/2000/svg" xmlns:xlink="http://www.w3.org/1999/xlink" x="0px" y="0px"
	 width="1400px" height="980px" viewBox="0 0 1400 980" style="enable-background:new 0 0 1400 980;" xml:space="preserve">
<style type="text/css">
	.st0{clip-path:url(#XMLID_297_);}
	.st1{fill:url(#XMLID_340_);}
	.st2{fill:#FCFAD3;}
	.st3{fill:#00B9CC;}
	.st4{fill:#86C550;}
	.st5{fill:#517837;}
	.st6{fill:#B5B5C4;}
	.st7{fill:#CECEDD;}
	.st8{fill:#74787C;}
	.st9{fill:#AF879B;}
	.st10{fill:#FFFFFF;}
	.st11{opacity:0.3;}
	.st12{fill:#29363E;}
	.st13{fill:#314D59;}
	.st14{fill:url(#XMLID_344_);}
	.st15{clip-path:url(#XMLID_350_);}
	.st16{fill:url(#XMLID_353_);}
	.st17{fill:url(#XMLID_356_);}
	.st18{fill:url(#XMLID_359_);}
	.st19{fill:url(#XMLID_362_);}
	.st20{fill:url(#XMLID_365_);}
	.st21{fill:url(#XMLID_367_);}
	.st22{fill:url(#XMLID_369_);}
	.st23{fill:url(#XMLID_371_);}
	.st24{fill:url(#XMLID_373_);}
	.st25{fill:url(#XMLID_375_);}
	.st26{fill:url(#XMLID_377_);}
	.st27{fill:url(#XMLID_379_);}
	.st28{fill:url(#XMLID_381_);}
	.st29{fill:url(#XMLID_383_);}
	.st30{fill:url(#XMLID_386_);}
	.st31{fill:url(#XMLID_388_);}
	.st32{fill:url(#XMLID_390_);}
	.st33{fill:url(#XMLID_392_);}
	.st34{fill:url(#XMLID_394_);}
	.st35{fill:url(#XMLID_396_);}
	.st36{fill:url(#XMLID_398_);}
	.st37{fill:#6D8591;}
	.st38{fill:#B7ECED;}
	.st39{fill:url(#XMLID_400_);}
	.st40{fill:url(#XMLID_402_);}
	.st41{fill:url(#XMLID_403_);}
	.st42{fill:url(#XMLID_404_);}
	.st43{fill:url(#XMLID_405_);}
	.st44{fill:url(#XMLID_406_);}
	.st45{fill:url(#XMLID_407_);}
	.st46{fill:url(#XMLID_408_);}
	.st47{fill:url(#XMLID_409_);}
	.st48{fill:url(#XMLID_410_);}
	.st49{fill:url(#XMLID_411_);}
	.st50{fill:url(#XMLID_412_);}
	.st51{fill:url(#XMLID_413_);}
	.st52{fill:url(#XMLID_414_);}
	.st53{fill:url(#XMLID_415_);}
	.st54{fill:#CC8C58;}
	.st55{fill:#F2B370;}
	.st56{fill:#E2A269;}
	.st57{fill:#CE7E2E;}
	.st58{fill:#E5A162;}
	.st59{fill:#EF5D00;}
	.st60{fill:url(#XMLID_416_);}
	.st61{fill:#F7941E;}
	.st62{fill:url(#XMLID_417_);}
	.st63{fill:url(#XMLID_418_);}
	.st64{fill:url(#XMLID_419_);}
	.st65{filter:url(#Adobe_OpacityMaskFilter);}
	.st66{filter:url(#Adobe_OpacityMaskFilter_1_);}
	.st67{mask:url(#XMLID_420_);fill:url(#XMLID_421_);}
	.st68{fill:#FBB040;}
	.st69{filter:url(#Adobe_OpacityMaskFilter_2_);}
	.st70{filter:url(#Adobe_OpacityMaskFilter_3_);}
	.st71{mask:url(#XMLID_422_);fill:url(#XMLID_423_);}
	.st72{opacity:0.5;fill:url(#XMLID_424_);}
	.st73{fill:#22303D;}
	.st74{fill:#678A86;}
	.st75{fill:#B5BCBB;}
	.st76{fill:#556A6F;}
	.st77{filter:url(#Adobe_OpacityMaskFilter_4_);}
	.st78{filter:url(#Adobe_OpacityMaskFilter_5_);}
	.st79{mask:url(#XMLID_425_);fill:url(#XMLID_426_);}
	.st80{opacity:0.5;fill:url(#XMLID_427_);}
	.st81{fill:#F9ED32;}
	.st82{fill:#433542;}
</style>
<g id="XMLID_1_">
	<defs>
		<rect id="XMLID_39_" width="1400" height="980"/>
	</defs>
	<clipPath id="XMLID_297_">
		<use xlink:href="#XMLID_39_"  style="overflow:visible;"/>
	</clipPath>
	<g id="XMLID_2_" class="st0">
		<linearGradient id="XMLID_340_" gradientUnits="userSpaceOnUse" x1="700" y1="7" x2="700" y2="459.0099">
			<stop  offset="5.102041e-003" style="stop-color:#27D9FF"/>
			<stop  offset="0.3888" style="stop-color:#4FE7FB"/>
			<stop  offset="1" style="stop-color:#8AFCF4"/>
		</linearGradient>
		<rect id="XMLID_923_" x="0" class="st1" width="1400" height="980"/>
		<g id="XMLID_35_">
			<polygon id="XMLID_920_" class="st2" points="0,445.9 1400,445.9 1400,427.5 0,393.8 			"/>
			<rect id="XMLID_917_" x="0" y="405.5" class="st2" width="1400" height="3.5"/>
			<rect id="XMLID_914_" x="0" y="450.7" class="st2" width="1400" height="3.5"/>
			<path id="XMLID_295_" class="st2" d="M1382.5,371.4c-8.1-19.4-24.5-14.9-35.6-19.9c-13.4-6-24.2-16.8-37.2-23.7
				c-13-6.9-30.7-9.1-41.2,1.3l-4.6,9.7c-21.5-17.6-47.8-29.3-75.3-33.5c-10.3-1.6-21.3-2-30.4,3s-15.1,16.9-10.3,26.1l-24.4-2.5
				c-8.1-0.8-14.4,7.4-11,14.9c0,0.1,0,0.1,0.1,0.2c-20.2,1.7-40.4,3.4-60.6,5.1c-5.3,0.4-12.5,5.1-8.9,9
				c-55.6-7.6-112.7-4.1-166.9,10.2H1382.5z"/>
			<path id="XMLID_510_" class="st2" d="M311.5,237.3c-8.1-19.4-24.5-14.9-35.6-19.9c-13.4-6-24.2-16.8-37.2-23.7
				c-13-6.9-30.7-9.1-41.2,1.3l-4.6,9.7c-21.5-17.6-47.8-29.3-75.3-33.5c-10.3-1.6-21.3-2-30.4,3c-9.1,5-15.1,16.9-10.3,26.1
				l-24.4-2.5c-8.1-0.8-14.4,7.4-11,14.9c0,0.1,0,0.1,0.1,0.2c-20.2,1.7-40.4,3.4-60.6,5.1c-5.3,0.4-12.5,5.1-8.9,9
				c-55.6-7.6-112.7-4.1-166.9,10.2H311.5z"/>
			<path id="XMLID_514_" class="st2" d="M512,350.3c-8.1-19.4-24.5-14.9-35.6-19.9c-13.4-6-24.2-16.8-37.2-23.7
				c-13-6.9-30.7-9.1-41.2,1.3l-4.6,9.7c-21.5-17.6-47.8-29.3-75.3-33.5c-10.3-1.6-21.3-2-30.4,3c-9.1,5-15.1,16.9-10.3,26.1
				l-24.4-2.5c-8.1-0.8-14.4,7.4-11,14.9c0,0.1,0,0.1,0.1,0.2c-20.2,1.7-40.4,3.4-60.6,5.1c-5.3,0.4-12.5,5.1-8.9,9
				C117,332.5,59.9,336,5.7,350.3H512z"/>
			<path id="XMLID_562_" class="st2" d="M562.3,368.7H837c-5.6-5.2-14.8-6.1-21.5-2.5c0.5-8.4-8.2-16.1-16.4-14.5
				c-0.8,2.9-1.6,5.7-2.3,8.6c-3.3-4-8.4-6.4-13.5-6.5c-1.3,3.1-1.6,6.7-0.6,9.9c-5.6-17.6-24.4-27.6-42.5-31.4
				c-9.7-2-20.2-2.8-29.3,1.1c-9.1,3.9-16.4,13.5-14.8,23.4c-5-3.4-10.3-6.9-16.3-7.3c-6-0.5-12.8,3.2-13.5,9.2
				c-16.8-10.5-36.8-15.8-56.6-15c-5.6,0.2-11.3,1-16,4c-4.7,3-8,8.8-6.6,14.2c-4.8-1.7-9.9-3.4-15-2.7
				C566.8,359.8,562.6,363.6,562.3,368.7z"/>
			<path id="XMLID_601_" class="st2" d="M664.4,209H939c-5.6-5.2-14.8-6.1-21.5-2.5c0.5-8.4-8.2-16.1-16.4-14.5
				c-0.8,2.9-1.6,5.7-2.3,8.6c-3.3-4-8.4-6.4-13.5-6.5c-1.3,3.1-1.6,6.7-0.6,9.9c-5.6-17.6-24.4-27.6-42.5-31.4
				c-9.7-2-20.2-2.8-29.3,1.1s-16.4,13.5-14.8,23.4c-5-3.4-10.3-6.9-16.3-7.3c-6-0.5-12.8,3.2-13.5,9.2
				c-16.8-10.5-36.8-15.8-56.6-15c-5.6,0.2-11.3,1-16,4c-4.7,3-8,8.8-6.6,14.2c-4.8-1.7-9.9-3.4-15-2.7
				C668.8,200,664.6,203.9,664.4,209z"/>
			<path id="XMLID_571_" class="st2" d="M850.5,325.6h127.6c-2.6-2.4-6.9-2.8-10-1.1c0.2-3.9-3.8-7.5-7.6-6.7
				c-0.4,1.3-0.7,2.7-1.1,4c-1.5-1.9-3.9-3-6.3-3c-0.6,1.4-0.7,3.1-0.3,4.6c-2.6-8.2-11.4-12.8-19.7-14.6c-4.5-1-9.4-1.3-13.6,0.5
				c-4.2,1.8-7.6,6.3-6.9,10.8c-2.3-1.6-4.8-3.2-7.6-3.4s-5.9,1.5-6.3,4.3c-7.8-4.9-17.1-7.3-26.3-7c-2.6,0.1-5.3,0.5-7.5,1.9
				c-2.2,1.4-3.7,4.1-3.1,6.6c-2.2-0.8-4.6-1.6-7-1.3C852.6,321.4,850.7,323.2,850.5,325.6z"/>
			<path id="XMLID_932_" class="st2" d="M1008.4,263.1h127.6c-2.6-2.4-6.9-2.8-10-1.1c0.2-3.9-3.8-7.5-7.6-6.7
				c-0.4,1.3-0.7,2.7-1.1,4c-1.5-1.9-3.9-3-6.3-3c-0.6,1.4-0.7,3.1-0.3,4.6c-2.6-8.2-11.4-12.8-19.7-14.6c-4.5-1-9.4-1.3-13.6,0.5
				c-4.2,1.8-7.6,6.3-6.9,10.8c-2.3-1.6-4.8-3.2-7.6-3.4c-2.8-0.2-5.9,1.5-6.3,4.3c-7.8-4.9-17.1-7.3-26.3-7
				c-2.6,0.1-5.3,0.5-7.5,1.9c-2.2,1.4-3.7,4.1-3.1,6.6c-2.2-0.8-4.6-1.6-7-1.3C1010.4,258.9,1008.5,260.7,1008.4,263.1z"/>
			<path id="XMLID_935_" class="st2" d="M1221.6,170.2h127.6c-2.6-2.4-6.9-2.8-10-1.1c0.2-3.9-3.8-7.5-7.6-6.7
				c-0.4,1.3-0.7,2.7-1.1,4c-1.5-1.9-3.9-3-6.3-3c-0.6,1.4-0.7,3.1-0.3,4.6c-2.6-8.2-11.4-12.8-19.7-14.6c-4.5-1-9.4-1.3-13.6,0.5
				c-4.2,1.8-7.6,6.3-6.9,10.8c-2.3-1.6-4.8-3.2-7.6-3.4c-2.8-0.2-5.9,1.5-6.3,4.3c-7.8-4.9-17.1-7.3-26.3-7
				c-2.6,0.1-5.3,0.5-7.5,1.9s-3.7,4.1-3.1,6.6c-2.2-0.8-4.6-1.6-7-1.3C1223.7,166.1,1221.7,167.8,1221.6,170.2z"/>
		</g>
		<g id="XMLID_38_">
			<rect id="XMLID_41_" y="489.4" class="st3" width="1400" height="188.6"/>
			<rect id="XMLID_40_" y="517.4" class="st4" width="1400" height="188.6"/>
			<g id="XMLID_37_">
				<polygon id="XMLID_34_" class="st5" points="1400,677 0,671.2 0,665.3 1400,665.3 				"/>
				<polygon id="XMLID_144_" class="st5" points="0,653 1400,647.2 1400,641.3 0,641.3 				"/>
				<polygon id="XMLID_22_" class="st5" points="1400,705.9 0,705.9 0,677.9 1400,664.2 				"/>
			</g>
		</g>
		<g id="XMLID_29_">
			<rect id="XMLID_85_" y="698.9" class="st6" width="1400" height="258"/>
			<rect id="XMLID_84_" y="710.6" class="st7" width="1400" height="258"/>
			<rect id="XMLID_83_" y="755.1" class="st8" width="1400" height="201.8"/>
			<rect id="XMLID_81_" y="764.9" class="st9" width="1400" height="224.2"/>
			<rect id="XMLID_58_" y="973.3" class="st7" width="1400" height="52.9"/>
		</g>
		<g id="XMLID_14_">
			<polygon id="XMLID_12_" class="st10" points="12.3,854.9 -56,854.9 -41.6,847.5 26.6,847.5 			"/>
			<polygon id="XMLID_15_" class="st10" points="102.9,854.9 34.7,854.9 49,847.5 117.3,847.5 			"/>
			<polygon id="XMLID_17_" class="st10" points="193.5,854.9 125.3,854.9 139.6,847.5 207.9,847.5 			"/>
			<polygon id="XMLID_18_" class="st10" points="284.2,854.9 215.9,854.9 230.2,847.5 298.5,847.5 			"/>
			<polygon id="XMLID_19_" class="st10" points="374.8,854.9 306.5,854.9 320.8,847.5 389.1,847.5 			"/>
			<polygon id="XMLID_20_" class="st10" points="465.4,854.9 397.1,854.9 411.4,847.5 479.7,847.5 			"/>
			<polygon id="XMLID_21_" class="st10" points="556,854.9 487.7,854.9 502.1,847.5 570.3,847.5 			"/>
		</g>
		<g id="XMLID_46_">
			<polygon id="XMLID_260_" class="st10" points="649.5,854.9 581.2,854.9 595.5,847.5 663.8,847.5 			"/>
			<polygon id="XMLID_61_" class="st10" points="740.1,854.9 671.8,854.9 686.1,847.5 754.4,847.5 			"/>
			<polygon id="XMLID_56_" class="st10" points="830.7,854.9 762.4,854.9 776.7,847.5 845,847.5 			"/>
			<polygon id="XMLID_52_" class="st10" points="921.3,854.9 853,854.9 867.4,847.5 935.6,847.5 			"/>
			<polygon id="XMLID_51_" class="st10" points="1011.9,854.9 943.7,854.9 958,847.5 1026.3,847.5 			"/>
			<polygon id="XMLID_49_" class="st10" points="1102.6,854.9 1034.3,854.9 1048.6,847.5 1116.9,847.5 			"/>
			<polygon id="XMLID_48_" class="st10" points="1193.2,854.9 1124.9,854.9 1139.2,847.5 1207.5,847.5 			"/>
		</g>
		<g id="XMLID_264_">
			<polygon id="XMLID_276_" class="st10" points="1286.6,854.9 1218.3,854.9 1232.7,847.5 1300.9,847.5 			"/>
			<polygon id="XMLID_275_" class="st10" points="1377.2,854.9 1309,854.9 1323.3,847.5 1391.6,847.5 			"/>
		</g>
		<path id="XMLID_266_" class="st11" d="M876.4,830.4c-1.6,0-9.5-0.1-11.1-0.1c-1.6,0.3-3.4,0.6-5.4,0.9c-2.5-0.4-6.2-0.8-11.6-1.1
			c11.5-0.9,21.6-2,28-3.3c14.8-2.9,4.8-5.4-22.4-5.5c-27.2-0.1-61.3,2.1-76.1,5c-2.6,0.5-4.4,1-5.5,1.5l-23-0.1
			c-4.9,0-10.9,0.4-13.4,0.9l-97.3-0.5l3.8-0.8c2.1-0.4,0.5-0.8-3.5-0.8l-118.9-0.7c-4,0-9,0.3-11.1,0.7l-99-0.5
			c8.6-2.5-2-4.5-26.3-4.6c-27.2-0.1-61.3,2.1-76.1,5c-1.5,0.3-2.8,0.6-3.8,0.9c-4.2,0.1-8.6,0.2-13.1,0.3c0.7-0.3,1.7-0.7,2.9-1.1
			l-131.2-0.7c-9.4-0.1-20.9,0.6-27.2,1.6l-0.7,0.2l-4.2,0l-1,0.2l-1.9,0l-7.6,1.6l1.9,0l-1,0.2l4.5,0l-4,0.9l-1.9,0l-2,0.8
			l-0.8,0.2l0.4,0l-61.4,24l-34.8,1.2l-5.8,0.5l2.9,0.4l24.1,3.2l0,0l-24.1-3.2l-24.7,2.1l-2.9-0.4l-5.8,0.5l2.9,0.4l155.9,20.9
			l2,0.3l4.5-0.2l363.5-18.1l6.5-0.3l-0.7-0.5l-6.5,0.3l-3.1-2.3l6.5-0.3l-0.7-0.5l-29.7-1.6l3.7-0.8l1-0.2l-10.8-0.1l17.4-3.6
			c7,0,10.8,0.1,10.8,0.1l6.8-1.4l-11.8-0.1l73.3-13.8l-59.9,12.4l10.7,0.1l5.2-1.1l4,0c1.3,0,2.8-0.1,3.5-0.2
			c0.7-0.1,0.2-0.3-1.1-0.3l-4,0l13.9-2.9l4,0c1.3,0,2.8-0.1,3.5-0.2c0.7-0.1,0.2-0.3-1.1-0.3l-4,0l18.5-3.8
			c-0.8,0.2-1.5,0.3-2.1,0.5c-0.4,0.1-0.8,0.2-1.1,0.3c-0.5,0.2-0.9,0.3-1.2,0.5l-1.2,0.6h0l-6.7,3.6l-2.2,1.2
			c-1.3,0.7,2.4,1.2,9.2,1.2l59.5,0.3c6.1,0,13.4-0.3,18.8-0.9l10.8-1.2h0l40.8-4.4l5.8,0c-1.5,0.2-3.1,0.5-4.6,0.8
			c-3.7,0.8-5.2,1.4-3.4,1.4c1.8,0,6.2-0.6,9.9-1.4c0.1,0,0.2,0,0.3-0.1l1.6,0l-0.3,0.1c-0.3,0.1-0.1,0.1,0.5,0.1
			c0.6,0,1.3,0,1.6-0.1l0.3-0.1l2.2,0c0.6,0,1.3,0,1.6-0.1c0.3-0.1,0.1-0.1-0.5-0.1l-2.2,0l1.8-0.4c0.3-0.1,0.5-0.1,0.7-0.2l52,0.3
			c16.2,0.1,34.1-0.2,52.3-0.9l23.4-0.9c2.3-0.1,4.4-0.3,5.4-0.5c0.4-0.1,0.6-0.2,0.7-0.3c0,0,0,0,0,0c0,0,0-0.1-0.1-0.1
			c0,0,0,0,0,0c-0.1,0-0.1,0-0.2-0.1c0,0,0,0-0.1,0c-0.1,0-0.3,0-0.4-0.1c-0.9-0.1-1.6-0.3-0.1-0.6c0.1,0,0.3-0.1,0.4-0.1
			c0,0,0.1,0,0.1,0c0.1,0,0.2,0,0.3,0c0.1,0,0.1,0,0.2,0c0.2,0,0.3,0,0.5-0.1c0,0,0,0,0.1,0c1-0.1,2.2-0.2,3.5-0.2
			c1.1,0,2.1-0.1,3.1-0.2c0,0,0,0,0,0c0.3,0,0.7-0.1,1-0.1c0.1,0,0.3,0,0.4,0c0.2,0,0.5,0,0.7-0.1c0.1,0,0.3,0,0.4,0
			c0.2,0,0.5-0.1,0.7-0.1c0.1,0,0.2,0,0.3,0c0.3,0,0.6-0.1,0.8-0.1c0.1,0,0.2,0,0.2,0c0.2,0,0.4-0.1,0.5-0.1c0.1,0,0.1,0,0.2,0
			c0.2,0,0.4-0.1,0.6-0.1l1.6-0.4h0l25.1-6.5C885.3,831.2,882.8,830.6,876.4,830.4z M393.5,831.7l205,1.2l0,0l-205.7-1.1
			C393,831.8,393.3,831.8,393.5,831.7z M371.9,833.4l217.8,1.2l1.3-0.3h0l1.8-0.4l1,0l-9.9,2.1l-0.9,0h0l4.5-0.9l-13.1-0.1l2.3-0.5
			L371.9,833.4C371.9,833.4,371.9,833.4,371.9,833.4z M360.4,833.8l21.6,0.1L360.4,833.8C360.4,833.8,360.4,833.8,360.4,833.8z
			 M377.5,834.9l-147.7-0.8l0,0L377.5,834.9z M227.5,834.6L227.5,834.6l147.7,0.8L227.5,834.6z M275.4,832.9l-39-0.2L275.4,832.9
			C275.4,832.9,275.4,832.9,275.4,832.9z M101.2,849.3l-14.1-0.1l-6.8,1.4c0,0,3.5,0,9.9,0.1l-17.4,3.6l-9.9-0.1l-1,0.2l-2.3,0.5
			l60.6-23.7l45.6,0.3l-10.9,0l-11,0l-15.2,3.2l8.7,0l26.7,0.1l-6.6,1.4l6.6,0L101.2,849.3z M191.7,835.3L191.7,835.3l2.5,0
			L191.7,835.3z M472.7,856.4l-0.4,0l16.9-3.5c0.7,0,1.5,0,2.2,0L472.7,856.4z M498.8,851.5l-2.9,0l67.7-14.1l-0.9,0l0.4-0.1
			l10.7,0.1L498.8,851.5z M567.6,836.4l2.3-0.5l11.3,0.1l-2.5,0.5L567.6,836.4z M568.8,841.4l3.2-0.7c-1.1,0.2-2,0.4-2.9,0.7
			C569,841.4,568.9,841.4,568.8,841.4z M609.8,832.9l2.1-0.4l1.8-0.4L609.8,832.9z M620.9,830.6l1.1-0.2c0.5-0.1,0.9-0.2,1.3-0.3
			l1,0C623,830.2,621.8,830.4,620.9,830.6z M705.9,843.4l-1.7,0.4l-1.7,0c0.8-0.2,1.5-0.4,2-0.5l2.2,0
			C706.4,843.3,706.2,843.4,705.9,843.4z"/>
		<g id="XMLID_3_">
			<g id="XMLID_31_">
				
					<rect id="XMLID_32_" x="487.6" y="568.9" transform="matrix(0.1019 0.9948 -0.9948 0.1019 1119.8167 -98.9586)" class="st12" width="254.2" height="3.6"/>
			</g>
			<g id="XMLID_30_">
				
					<rect id="XMLID_33_" x="170.4" y="418.2" transform="matrix(0.9826 0.1859 -0.1859 0.9826 111.9256 -21.81)" class="st12" width="3.6" height="335.2"/>
			</g>
			<g id="XMLID_1650_">
				<polygon id="XMLID_1813_" class="st13" points="154.3,503.2 201.6,521.2 603.4,501.4 660.1,478.5 465.2,354.1 255.4,408.9 				
					"/>
				
					<linearGradient id="XMLID_344_" gradientUnits="userSpaceOnUse" x1="420.2917" y1="782.9297" x2="420.2917" y2="416.1459" gradientTransform="matrix(0.9988 -4.925268e-002 4.925268e-002 0.9988 -43.5468 -64.4491)">
					<stop  offset="0" style="stop-color:#F2E7D3"/>
					<stop  offset="0.2018" style="stop-color:#D7D2C2"/>
					<stop  offset="0.6321" style="stop-color:#939B96"/>
					<stop  offset="1" style="stop-color:#54696E"/>
				</linearGradient>
				<polygon id="XMLID_1812_" class="st14" points="387.1,292.6 202.6,437.8 215.7,704.2 613.6,684.6 600.5,418.2 				"/>
				<g id="XMLID_1702_">
					<defs>
						<polygon id="XMLID_1703_" points="387.1,292.6 202.6,437.8 215.7,704.2 613.6,684.6 600.5,418.2 						"/>
					</defs>
					<clipPath id="XMLID_350_">
						<use xlink:href="#XMLID_1703_"  style="overflow:visible;"/>
					</clipPath>
					<g id="XMLID_1704_" class="st15">
						<g id="XMLID_795_">
							<g id="XMLID_866_">
								
									<linearGradient id="XMLID_353_" gradientUnits="userSpaceOnUse" x1="412.3008" y1="408.1561" x2="412.3008" y2="774.5049" gradientTransform="matrix(0.9988 -4.925268e-002 4.925268e-002 0.9988 -43.5468 -64.4491)">
									<stop  offset="0" style="stop-color:#F2E7D3"/>
									<stop  offset="0.2018" style="stop-color:#D7D2C2"/>
									<stop  offset="0.6321" style="stop-color:#939B96"/>
									<stop  offset="1" style="stop-color:#54696E"/>
								</linearGradient>
								<polygon id="XMLID_867_" class="st16" points="132.3,325.5 643.4,300.3 643.8,307.8 132.7,333 								"/>
							</g>
							<g id="XMLID_864_">
								
									<linearGradient id="XMLID_356_" gradientUnits="userSpaceOnUse" x1="412.3008" y1="408.1561" x2="412.3008" y2="774.5049" gradientTransform="matrix(0.9988 -4.925268e-002 4.925268e-002 0.9988 -43.5468 -64.4491)">
									<stop  offset="0" style="stop-color:#F2E7D3"/>
									<stop  offset="0.2018" style="stop-color:#D7D2C2"/>
									<stop  offset="0.6321" style="stop-color:#939B96"/>
									<stop  offset="1" style="stop-color:#54696E"/>
								</linearGradient>
								<polygon id="XMLID_865_" class="st17" points="133.2,343.7 644.3,318.5 644.7,326 133.6,351.3 								"/>
							</g>
							<g id="XMLID_862_">
								
									<linearGradient id="XMLID_359_" gradientUnits="userSpaceOnUse" x1="412.3008" y1="408.1561" x2="412.3008" y2="774.5049" gradientTransform="matrix(0.9988 -4.925268e-002 4.925268e-002 0.9988 -43.5468 -64.4491)">
									<stop  offset="0" style="stop-color:#F2E7D3"/>
									<stop  offset="0.2018" style="stop-color:#D7D2C2"/>
									<stop  offset="0.6321" style="stop-color:#939B96"/>
									<stop  offset="1" style="stop-color:#54696E"/>
								</linearGradient>
								<polygon id="XMLID_863_" class="st18" points="134.1,362 645.2,336.8 645.6,344.3 134.5,369.5 								"/>
							</g>
							<g id="XMLID_860_">
								
									<linearGradient id="XMLID_362_" gradientUnits="userSpaceOnUse" x1="412.3008" y1="408.1561" x2="412.3008" y2="774.5049" gradientTransform="matrix(0.9988 -4.925268e-002 4.925268e-002 0.9988 -43.5468 -64.4491)">
									<stop  offset="0" style="stop-color:#F2E7D3"/>
									<stop  offset="0.2018" style="stop-color:#D7D2C2"/>
									<stop  offset="0.6321" style="stop-color:#939B96"/>
									<stop  offset="1" style="stop-color:#54696E"/>
								</linearGradient>
								<polygon id="XMLID_861_" class="st19" points="135,380.3 646.1,355.1 646.5,362.6 135.4,387.8 								"/>
							</g>
							<g id="XMLID_858_">
								
									<linearGradient id="XMLID_365_" gradientUnits="userSpaceOnUse" x1="412.3008" y1="408.1561" x2="412.3008" y2="774.5049" gradientTransform="matrix(0.9988 -4.925268e-002 4.925268e-002 0.9988 -43.5468 -64.4491)">
									<stop  offset="0" style="stop-color:#F2E7D3"/>
									<stop  offset="0.2018" style="stop-color:#D7D2C2"/>
									<stop  offset="0.6321" style="stop-color:#939B96"/>
									<stop  offset="1" style="stop-color:#54696E"/>
								</linearGradient>
								<polygon id="XMLID_859_" class="st20" points="135.9,398.6 647,373.4 647.4,380.9 136.3,406.1 								"/>
							</g>
							<g id="XMLID_856_">
								
									<linearGradient id="XMLID_367_" gradientUnits="userSpaceOnUse" x1="412.3008" y1="408.1561" x2="412.3008" y2="774.5049" gradientTransform="matrix(0.9988 -4.925268e-002 4.925268e-002 0.9988 -43.5468 -64.4491)">
									<stop  offset="0" style="stop-color:#F2E7D3"/>
									<stop  offset="0.2018" style="stop-color:#D7D2C2"/>
									<stop  offset="0.6321" style="stop-color:#939B96"/>
									<stop  offset="1" style="stop-color:#54696E"/>
								</linearGradient>
								<polygon id="XMLID_857_" class="st21" points="136.8,416.9 647.9,391.7 648.3,399.2 137.2,424.4 								"/>
							</g>
							<g id="XMLID_854_">
								
									<linearGradient id="XMLID_369_" gradientUnits="userSpaceOnUse" x1="412.3008" y1="408.1561" x2="412.3008" y2="774.5049" gradientTransform="matrix(0.9988 -4.925268e-002 4.925268e-002 0.9988 -43.5468 -64.4491)">
									<stop  offset="0" style="stop-color:#F2E7D3"/>
									<stop  offset="0.2018" style="stop-color:#D7D2C2"/>
									<stop  offset="0.6321" style="stop-color:#939B96"/>
									<stop  offset="1" style="stop-color:#54696E"/>
								</linearGradient>
								<polygon id="XMLID_855_" class="st22" points="137.7,435.2 648.8,410 649.2,417.5 138.1,442.7 								"/>
							</g>
							<g id="XMLID_852_">
								
									<linearGradient id="XMLID_371_" gradientUnits="userSpaceOnUse" x1="412.3008" y1="408.1561" x2="412.3008" y2="774.5049" gradientTransform="matrix(0.9988 -4.925268e-002 4.925268e-002 0.9988 -43.5468 -64.4491)">
									<stop  offset="0" style="stop-color:#F2E7D3"/>
									<stop  offset="0.2018" style="stop-color:#D7D2C2"/>
									<stop  offset="0.6321" style="stop-color:#939B96"/>
									<stop  offset="1" style="stop-color:#54696E"/>
								</linearGradient>
								<polygon id="XMLID_853_" class="st23" points="138.6,453.4 649.7,428.2 650.1,435.8 139,461 								"/>
							</g>
							<g id="XMLID_850_">
								
									<linearGradient id="XMLID_373_" gradientUnits="userSpaceOnUse" x1="412.3008" y1="408.1561" x2="412.3008" y2="774.5049" gradientTransform="matrix(0.9988 -4.925268e-002 4.925268e-002 0.9988 -43.5468 -64.4491)">
									<stop  offset="0" style="stop-color:#F2E7D3"/>
									<stop  offset="0.2018" style="stop-color:#D7D2C2"/>
									<stop  offset="0.6321" style="stop-color:#939B96"/>
									<stop  offset="1" style="stop-color:#54696E"/>
								</linearGradient>
								<polygon id="XMLID_851_" class="st24" points="139.5,471.7 650.6,446.5 651,454 139.9,479.2 								"/>
							</g>
							<g id="XMLID_848_">
								
									<linearGradient id="XMLID_375_" gradientUnits="userSpaceOnUse" x1="412.3008" y1="408.1561" x2="412.3008" y2="774.5049" gradientTransform="matrix(0.9988 -4.925268e-002 4.925268e-002 0.9988 -43.5468 -64.4491)">
									<stop  offset="0" style="stop-color:#F2E7D3"/>
									<stop  offset="0.2018" style="stop-color:#D7D2C2"/>
									<stop  offset="0.6321" style="stop-color:#939B96"/>
									<stop  offset="1" style="stop-color:#54696E"/>
								</linearGradient>
								<polygon id="XMLID_849_" class="st25" points="140.4,490 651.5,464.8 651.9,472.3 140.8,497.5 								"/>
							</g>
							<g id="XMLID_846_">
								
									<linearGradient id="XMLID_377_" gradientUnits="userSpaceOnUse" x1="412.3008" y1="408.1559" x2="412.3008" y2="774.5047" gradientTransform="matrix(0.9988 -4.925268e-002 4.925268e-002 0.9988 -43.5468 -64.4491)">
									<stop  offset="0" style="stop-color:#F2E7D3"/>
									<stop  offset="0.2018" style="stop-color:#D7D2C2"/>
									<stop  offset="0.6321" style="stop-color:#939B96"/>
									<stop  offset="1" style="stop-color:#54696E"/>
								</linearGradient>
								<polygon id="XMLID_847_" class="st26" points="141.3,508.3 652.4,483.1 652.8,490.6 141.7,515.8 								"/>
							</g>
							<g id="XMLID_844_">
								
									<linearGradient id="XMLID_379_" gradientUnits="userSpaceOnUse" x1="412.3008" y1="408.1561" x2="412.3008" y2="774.5049" gradientTransform="matrix(0.9988 -4.925268e-002 4.925268e-002 0.9988 -43.5468 -64.4491)">
									<stop  offset="0" style="stop-color:#F2E7D3"/>
									<stop  offset="0.2018" style="stop-color:#D7D2C2"/>
									<stop  offset="0.6321" style="stop-color:#939B96"/>
									<stop  offset="1" style="stop-color:#54696E"/>
								</linearGradient>
								<polygon id="XMLID_845_" class="st27" points="142.2,526.6 653.3,501.4 653.7,508.9 142.6,534.1 								"/>
							</g>
							<g id="XMLID_828_">
								
									<linearGradient id="XMLID_381_" gradientUnits="userSpaceOnUse" x1="412.3008" y1="408.1561" x2="412.3008" y2="774.5049" gradientTransform="matrix(0.9988 -4.925268e-002 4.925268e-002 0.9988 -43.5468 -64.4491)">
									<stop  offset="0" style="stop-color:#F2E7D3"/>
									<stop  offset="0.2018" style="stop-color:#D7D2C2"/>
									<stop  offset="0.6321" style="stop-color:#939B96"/>
									<stop  offset="1" style="stop-color:#54696E"/>
								</linearGradient>
								<polygon id="XMLID_843_" class="st28" points="143.1,544.9 654.2,519.7 654.6,527.2 143.5,552.4 								"/>
							</g>
							<g id="XMLID_822_">
								
									<linearGradient id="XMLID_383_" gradientUnits="userSpaceOnUse" x1="412.3008" y1="408.1561" x2="412.3008" y2="774.5049" gradientTransform="matrix(0.9988 -4.925268e-002 4.925268e-002 0.9988 -43.5468 -64.4491)">
									<stop  offset="0" style="stop-color:#F2E7D3"/>
									<stop  offset="0.2018" style="stop-color:#D7D2C2"/>
									<stop  offset="0.6321" style="stop-color:#939B96"/>
									<stop  offset="1" style="stop-color:#54696E"/>
								</linearGradient>
								<polygon id="XMLID_825_" class="st29" points="144,563.2 655.1,537.9 655.5,545.5 144.4,570.7 								"/>
							</g>
							<g id="XMLID_816_">
								
									<linearGradient id="XMLID_386_" gradientUnits="userSpaceOnUse" x1="412.3008" y1="408.1561" x2="412.3008" y2="774.5049" gradientTransform="matrix(0.9988 -4.925268e-002 4.925268e-002 0.9988 -43.5468 -64.4491)">
									<stop  offset="0" style="stop-color:#F2E7D3"/>
									<stop  offset="0.2018" style="stop-color:#D7D2C2"/>
									<stop  offset="0.6321" style="stop-color:#939B96"/>
									<stop  offset="1" style="stop-color:#54696E"/>
								</linearGradient>
								<polygon id="XMLID_819_" class="st30" points="144.9,581.4 656,556.2 656.4,563.7 145.3,588.9 								"/>
							</g>
							<g id="XMLID_810_">
								
									<linearGradient id="XMLID_388_" gradientUnits="userSpaceOnUse" x1="412.3008" y1="408.1561" x2="412.3008" y2="774.5049" gradientTransform="matrix(0.9988 -4.925268e-002 4.925268e-002 0.9988 -43.5468 -64.4491)">
									<stop  offset="0" style="stop-color:#F2E7D3"/>
									<stop  offset="0.2018" style="stop-color:#D7D2C2"/>
									<stop  offset="0.6321" style="stop-color:#939B96"/>
									<stop  offset="1" style="stop-color:#54696E"/>
								</linearGradient>
								<polygon id="XMLID_813_" class="st31" points="145.8,599.7 656.9,574.5 657.3,582 146.2,607.2 								"/>
							</g>
							<g id="XMLID_806_">
								
									<linearGradient id="XMLID_390_" gradientUnits="userSpaceOnUse" x1="412.3008" y1="408.1561" x2="412.3008" y2="774.5049" gradientTransform="matrix(0.9988 -4.925268e-002 4.925268e-002 0.9988 -43.5468 -64.4491)">
									<stop  offset="0" style="stop-color:#F2E7D3"/>
									<stop  offset="0.2018" style="stop-color:#D7D2C2"/>
									<stop  offset="0.6321" style="stop-color:#939B96"/>
									<stop  offset="1" style="stop-color:#54696E"/>
								</linearGradient>
								<polygon id="XMLID_807_" class="st32" points="146.7,618 657.8,592.8 658.2,600.3 147.1,625.5 								"/>
							</g>
							<g id="XMLID_802_">
								
									<linearGradient id="XMLID_392_" gradientUnits="userSpaceOnUse" x1="412.3008" y1="408.1561" x2="412.3008" y2="774.5049" gradientTransform="matrix(0.9988 -4.925268e-002 4.925268e-002 0.9988 -43.5468 -64.4491)">
									<stop  offset="0" style="stop-color:#F2E7D3"/>
									<stop  offset="0.2018" style="stop-color:#D7D2C2"/>
									<stop  offset="0.6321" style="stop-color:#939B96"/>
									<stop  offset="1" style="stop-color:#54696E"/>
								</linearGradient>
								<polygon id="XMLID_805_" class="st33" points="147.6,636.3 658.7,611.1 659.1,618.6 148,643.8 								"/>
							</g>
							<g id="XMLID_800_">
								
									<linearGradient id="XMLID_394_" gradientUnits="userSpaceOnUse" x1="412.3008" y1="408.1561" x2="412.3008" y2="774.5049" gradientTransform="matrix(0.9988 -4.925268e-002 4.925268e-002 0.9988 -43.5468 -64.4491)">
									<stop  offset="0" style="stop-color:#F2E7D3"/>
									<stop  offset="0.2018" style="stop-color:#D7D2C2"/>
									<stop  offset="0.6321" style="stop-color:#939B96"/>
									<stop  offset="1" style="stop-color:#54696E"/>
								</linearGradient>
								<polygon id="XMLID_801_" class="st34" points="148.5,654.6 659.6,629.4 660,636.9 148.9,662.1 								"/>
							</g>
							<g id="XMLID_798_">
								
									<linearGradient id="XMLID_396_" gradientUnits="userSpaceOnUse" x1="412.3008" y1="408.1561" x2="412.3008" y2="774.5049" gradientTransform="matrix(0.9988 -4.925268e-002 4.925268e-002 0.9988 -43.5468 -64.4491)">
									<stop  offset="0" style="stop-color:#F2E7D3"/>
									<stop  offset="0.2018" style="stop-color:#D7D2C2"/>
									<stop  offset="0.6321" style="stop-color:#939B96"/>
									<stop  offset="1" style="stop-color:#54696E"/>
								</linearGradient>
								<polygon id="XMLID_799_" class="st35" points="149.4,672.9 660.5,647.7 660.9,655.2 149.8,680.4 								"/>
							</g>
							<g id="XMLID_796_">
								
									<linearGradient id="XMLID_398_" gradientUnits="userSpaceOnUse" x1="412.3008" y1="408.1561" x2="412.3008" y2="774.5049" gradientTransform="matrix(0.9988 -4.925268e-002 4.925268e-002 0.9988 -43.5468 -64.4491)">
									<stop  offset="0" style="stop-color:#F2E7D3"/>
									<stop  offset="0.2018" style="stop-color:#D7D2C2"/>
									<stop  offset="0.6321" style="stop-color:#939B96"/>
									<stop  offset="1" style="stop-color:#54696E"/>
								</linearGradient>
								<polygon id="XMLID_797_" class="st36" points="150.3,691.1 661.4,665.9 661.8,673.5 150.7,698.7 								"/>
							</g>
						</g>
					</g>
				</g>
				<polygon id="XMLID_1701_" class="st13" points="394.9,338.4 274.8,435.9 529.4,423.4 				"/>
				<g id="XMLID_1694_">
					
						<rect id="XMLID_1698_" x="308.7" y="447.9" transform="matrix(0.9988 -4.925268e-002 4.925268e-002 0.9988 -23.5543 16.9827)" class="st13" width="48.2" height="77"/>
					
						<rect id="XMLID_1697_" x="312.7" y="454.2" transform="matrix(0.9988 -4.925268e-002 4.925268e-002 0.9988 -23.5543 16.9827)" class="st37" width="40.3" height="64.5"/>
					
						<rect id="XMLID_1696_" x="315.1" y="458.1" transform="matrix(0.9988 -4.925268e-002 4.925268e-002 0.9988 -23.5543 16.9827)" class="st38" width="35.4" height="56.6"/>
					
						<rect id="XMLID_1695_" x="315.1" y="484.4" transform="matrix(0.9988 -4.925268e-002 4.925268e-002 0.9988 -23.5543 16.9827)" class="st37" width="35.4" height="4.1"/>
				</g>
				<g id="XMLID_1687_">
					
						<rect id="XMLID_1691_" x="435.7" y="441.7" transform="matrix(0.9988 -4.925268e-002 4.925268e-002 0.9988 -23.0918 23.2294)" class="st13" width="48.2" height="77"/>
					
						<rect id="XMLID_1690_" x="439.6" y="447.9" transform="matrix(0.9988 -4.925268e-002 4.925268e-002 0.9988 -23.0918 23.2294)" class="st37" width="40.3" height="64.5"/>
					
						<rect id="XMLID_1689_" x="442.1" y="451.9" transform="matrix(0.9988 -4.925268e-002 4.925268e-002 0.9988 -23.0918 23.2294)" class="st38" width="35.4" height="56.6"/>
					
						<rect id="XMLID_1688_" x="442.1" y="478.1" transform="matrix(0.9988 -4.925268e-002 4.925268e-002 0.9988 -23.0918 23.2294)" class="st37" width="35.4" height="4.1"/>
				</g>
				<polygon id="XMLID_1684_" class="st13" points="187.2,521.9 624,500.4 599.7,505.5 212,524.7 				"/>
				<g id="XMLID_1649_">
					<g id="XMLID_574_">
						<g id="XMLID_593_">
							
								<rect id="XMLID_594_" x="198.3" y="516.5" transform="matrix(0.9988 -4.925268e-002 4.925268e-002 0.9988 -26.3697 10.5519)" class="st37" width="5.2" height="47.6"/>
						</g>
						<g id="XMLID_591_">
							
								<rect id="XMLID_592_" x="243.9" y="514.3" transform="matrix(0.9988 -4.925268e-002 4.925268e-002 0.9988 -26.2036 12.7952)" class="st37" width="5.2" height="47.6"/>
						</g>
						<g id="XMLID_589_">
							
								<rect id="XMLID_590_" x="289.5" y="512" transform="matrix(0.9988 -4.925268e-002 4.925268e-002 0.9988 -26.0375 15.0385)" class="st37" width="5.2" height="47.6"/>
						</g>
						<g id="XMLID_587_">
							
								<rect id="XMLID_588_" x="335.2" y="509.8" transform="matrix(0.9988 -4.925268e-002 4.925268e-002 0.9988 -25.8713 17.2818)" class="st37" width="5.2" height="47.6"/>
						</g>
						<g id="XMLID_585_">
							
								<rect id="XMLID_586_" x="380.8" y="507.5" transform="matrix(0.9988 -4.925268e-002 4.925268e-002 0.9988 -25.7052 19.5252)" class="st37" width="5.2" height="47.6"/>
						</g>
						<g id="XMLID_583_">
							
								<rect id="XMLID_584_" x="426.4" y="505.3" transform="matrix(0.9988 -4.925268e-002 4.925268e-002 0.9988 -25.5391 21.7685)" class="st37" width="5.2" height="47.6"/>
						</g>
						<g id="XMLID_581_">
							
								<rect id="XMLID_582_" x="472" y="503" transform="matrix(0.9988 -4.925268e-002 4.925268e-002 0.9988 -25.373 24.0118)" class="st37" width="5.2" height="47.6"/>
						</g>
						<g id="XMLID_579_">
							
								<rect id="XMLID_580_" x="517.6" y="500.8" transform="matrix(0.9988 -4.925268e-002 4.925268e-002 0.9988 -25.2069 26.2551)" class="st37" width="5.2" height="47.6"/>
						</g>
						<g id="XMLID_577_">
							
								<rect id="XMLID_578_" x="563.2" y="498.5" transform="matrix(0.9988 -4.925268e-002 4.925268e-002 0.9988 -25.0408 28.4985)" class="st37" width="5.2" height="47.6"/>
						</g>
						<g id="XMLID_575_">
							
								<rect id="XMLID_576_" x="608.8" y="496.3" transform="matrix(0.9988 -4.925268e-002 4.925268e-002 0.9988 -24.8747 30.7418)" class="st37" width="5.2" height="47.6"/>
						</g>
					</g>
				</g>
				<linearGradient id="XMLID_400_" gradientUnits="userSpaceOnUse" x1="189.0248" y1="553.9988" x2="626.481" y2="553.9988">
					<stop  offset="0" style="stop-color:#FFFFFF"/>
					<stop  offset="1" style="stop-color:#BCCEE6"/>
				</linearGradient>
				<polygon id="XMLID_1646_" class="st39" points="189,558.1 625.8,536.6 626.5,549.9 189.7,571.4 				"/>
				<linearGradient id="XMLID_402_" gradientUnits="userSpaceOnUse" x1="186.6781" y1="506.4116" x2="624.1343" y2="506.4116">
					<stop  offset="0" style="stop-color:#FFFFFF"/>
					<stop  offset="1" style="stop-color:#BCCEE6"/>
				</linearGradient>
				<polygon id="XMLID_1643_" class="st40" points="186.7,510.6 623.5,489 624.1,502.3 187.3,523.8 				"/>
				<path id="XMLID_1640_" class="st10" d="M186.7,510.6c0,0,27.3-1.5,68.2-3.8c20.5-1.1,44.4-2.3,69.9-3.7
					c25.6-1.3,52.9-2.7,80.2-4.1c27.3-1.3,54.6-2.6,80.2-3.9c25.6-1.2,49.5-2.3,70-3.2c41-1.8,68.3-3,68.3-3s-27.3,1.5-68.2,3.8
					c-20.5,1.1-44.4,2.3-69.9,3.7c-25.6,1.3-52.9,2.7-80.2,4.1c-27.3,1.3-54.6,2.6-80.2,3.9c-25.6,1.2-49.5,2.3-70,3.2
					C214,509.4,186.7,510.6,186.7,510.6z"/>
				<path id="XMLID_1637_" class="st10" d="M189,558.1c0,0,27.3-1.5,68.2-3.8c20.5-1.1,44.4-2.3,69.9-3.7
					c25.6-1.3,52.9-2.7,80.2-4.1c27.3-1.3,54.6-2.6,80.2-3.9c25.6-1.2,49.5-2.3,70-3.2c41-1.8,68.3-3,68.3-3s-27.3,1.5-68.2,3.8
					c-20.5,1.1-44.4,2.3-69.9,3.7c-25.6,1.3-52.9,2.7-80.2,4.1c-27.3,1.3-54.6,2.6-80.2,3.9c-25.6,1.2-49.5,2.3-70,3.2
					C216.3,557,189,558.1,189,558.1z"/>
				<g id="XMLID_1624_">
					<polygon id="XMLID_1634_" class="st38" points="443.6,381.4 402.7,356.7 405.9,422.7 412.7,422.3 					"/>
					<polygon id="XMLID_1631_" class="st38" points="348.7,387.8 382,423.8 389.1,423.5 385.8,358 					"/>
					<polygon id="XMLID_1628_" class="st38" points="344.1,391.5 298.6,428 374.4,424.2 					"/>
					<polygon id="XMLID_1625_" class="st38" points="448.7,384.5 420.3,422 504,417.8 					"/>
				</g>
				<g id="XMLID_1620_">
					<linearGradient id="XMLID_403_" gradientUnits="userSpaceOnUse" x1="241.8464" y1="572.8267" x2="250.6745" y2="572.8267">
						<stop  offset="0" style="stop-color:#B7ECED"/>
						<stop  offset="1" style="stop-color:#6D8591"/>
					</linearGradient>
					<polygon id="XMLID_1623_" class="st41" points="250.7,576.8 242.3,577.2 241.8,568.8 250.3,568.4 					"/>
					<linearGradient id="XMLID_404_" gradientUnits="userSpaceOnUse" x1="250.2596" y1="583.8817" x2="260.0221" y2="583.8817">
						<stop  offset="0" style="stop-color:#B7ECED"/>
						<stop  offset="1" style="stop-color:#6D8591"/>
					</linearGradient>
					<polygon id="XMLID_1622_" class="st42" points="250.3,568.4 250.7,576.8 260,599.8 258.5,568 					"/>
					<linearGradient id="XMLID_405_" gradientUnits="userSpaceOnUse" x1="248.8651" y1="576.2043" x2="253.6528" y2="602.058">
						<stop  offset="0" style="stop-color:#6D8591"/>
						<stop  offset="1" style="stop-color:#B7ECED"/>
					</linearGradient>
					<path id="XMLID_1621_" class="st43" d="M250.7,576.8c0,0,6.2,6.3,9.3,22.9l-7.8,0.4c0,0-1.9-14.9-9.9-22.9L250.7,576.8z"/>
				</g>
				<g id="XMLID_1616_">
					<linearGradient id="XMLID_406_" gradientUnits="userSpaceOnUse" x1="567.9621" y1="556.7451" x2="576.7902" y2="556.7451">
						<stop  offset="0" style="stop-color:#6D8591"/>
						<stop  offset="1" style="stop-color:#B7ECED"/>
					</linearGradient>
					<polygon id="XMLID_1619_" class="st44" points="568.4,561.2 576.8,560.7 576.4,552.3 568,552.7 					"/>
					<linearGradient id="XMLID_407_" gradientUnits="userSpaceOnUse" x1="559.7651" y1="568.8214" x2="568.377" y2="568.8214">
						<stop  offset="0" style="stop-color:#6D8591"/>
						<stop  offset="1" style="stop-color:#B7ECED"/>
					</linearGradient>
					<polygon id="XMLID_1618_" class="st45" points="568,552.7 568.4,561.2 561.3,584.9 559.8,553.2 					"/>
					<linearGradient id="XMLID_408_" gradientUnits="userSpaceOnUse" x1="569.0604" y1="560.859" x2="569.0604" y2="583.9771">
						<stop  offset="0" style="stop-color:#6D8591"/>
						<stop  offset="1" style="stop-color:#B7ECED"/>
					</linearGradient>
					<path id="XMLID_1617_" class="st46" d="M568.4,561.2c0,0-5.6,6.9-7,23.7l7.8-0.4c0,0,0.4-15,7.6-23.8L568.4,561.2z"/>
				</g>
				
					<linearGradient id="XMLID_409_" gradientUnits="userSpaceOnUse" x1="422.3196" y1="654.9878" x2="422.3196" y2="679.5793" gradientTransform="matrix(0.9988 -4.925268e-002 4.925268e-002 0.9988 -43.5468 -64.4491)">
					<stop  offset="0" style="stop-color:#6D8591"/>
					<stop  offset="1" style="stop-color:#B7ECED"/>
				</linearGradient>
				<polygon id="XMLID_1615_" class="st47" points="408.8,593.6 414.7,593.4 413.5,568.8 407.6,569.1 				"/>
				
					<linearGradient id="XMLID_410_" gradientUnits="userSpaceOnUse" x1="418.1079" y1="650.7761" x2="426.5314" y2="650.7761" gradientTransform="matrix(0.9988 -4.925268e-002 4.925268e-002 0.9988 -43.5468 -64.4491)">
					<stop  offset="0" style="stop-color:#6D8591"/>
					<stop  offset="1" style="stop-color:#B7ECED"/>
				</linearGradient>
				<polygon id="XMLID_1614_" class="st48" points="406.3,569.2 414.7,568.7 414.3,560.3 405.9,560.7 				"/>
				
					<linearGradient id="XMLID_411_" gradientUnits="userSpaceOnUse" x1="211.8049" y1="784.8843" x2="632.8853" y2="784.8843" gradientTransform="matrix(0.9988 -4.925268e-002 4.925268e-002 0.9988 -43.5468 -64.4491)">
					<stop  offset="0" style="stop-color:#6D8591"/>
					<stop  offset="1" style="stop-color:#B7ECED"/>
				</linearGradient>
				<polygon id="XMLID_1613_" class="st49" points="206.4,704.6 627,683.9 627.4,692.7 206.9,713.5 				"/>
				
					<linearGradient id="XMLID_412_" gradientUnits="userSpaceOnUse" x1="211.8049" y1="798.163" x2="632.8853" y2="798.163" gradientTransform="matrix(0.9988 -4.925268e-002 4.925268e-002 0.9988 -43.5468 -64.4491)">
					<stop  offset="0" style="stop-color:#6D8591"/>
					<stop  offset="1" style="stop-color:#B7ECED"/>
				</linearGradient>
				<polygon id="XMLID_1612_" class="st50" points="207.1,717.9 627.7,697.2 628.1,706 207.5,726.7 				"/>
				
					<rect id="XMLID_1609_" x="206.9" y="707.5" transform="matrix(-0.9988 4.925268e-002 -4.925268e-002 -0.9988 869.2863 1396.1509)" class="st10" width="421.1" height="2.5"/>
				
					<rect id="XMLID_1606_" x="220.1" y="703.1" transform="matrix(-0.9988 4.925268e-002 -4.925268e-002 -0.9988 868.7729 1389.2169)" class="st13" width="394.3" height="4.4"/>
				
					<linearGradient id="XMLID_413_" gradientUnits="userSpaceOnUse" x1="211.8049" y1="811.4417" x2="632.8853" y2="811.4417" gradientTransform="matrix(0.9988 -4.925268e-002 4.925268e-002 0.9988 -43.5468 -64.4491)">
					<stop  offset="0" style="stop-color:#6D8591"/>
					<stop  offset="1" style="stop-color:#B7ECED"/>
				</linearGradient>
				<polygon id="XMLID_1605_" class="st51" points="207.7,731.2 628.3,710.4 628.8,719.3 208.2,740 				"/>
				
					<rect id="XMLID_1602_" x="207.6" y="720.8" transform="matrix(-0.9988 4.925268e-002 -4.925268e-002 -0.9988 871.2467 1422.6277)" class="st10" width="421.1" height="2.5"/>
				
					<rect id="XMLID_1599_" x="220.8" y="716.4" transform="matrix(-0.9988 4.925268e-002 -4.925268e-002 -0.9988 870.7333 1415.6937)" class="st13" width="394.3" height="4.4"/>
				
					<linearGradient id="XMLID_414_" gradientUnits="userSpaceOnUse" x1="216.0212" y1="649.8671" x2="226.2008" y2="649.8671" gradientTransform="matrix(0.9988 -4.925268e-002 4.925268e-002 0.9988 -43.5468 -64.4491)">
					<stop  offset="0" style="stop-color:#FFFFFF"/>
					<stop  offset="1" style="stop-color:#BCCEE6"/>
				</linearGradient>
				<polygon id="XMLID_1596_" class="st52" points="197.8,444.3 208,443.8 220.8,703.2 210.6,703.7 				"/>
				
					<linearGradient id="XMLID_415_" gradientUnits="userSpaceOnUse" x1="610.2051" y1="649.8671" x2="620.3847" y2="649.8671" gradientTransform="matrix(0.9988 -4.925268e-002 4.925268e-002 0.9988 -43.5468 -64.4491)">
					<stop  offset="0" style="stop-color:#FFFFFF"/>
					<stop  offset="1" style="stop-color:#BCCEE6"/>
				</linearGradient>
				<polygon id="XMLID_1593_" class="st53" points="591.5,424.8 601.7,424.3 614.5,683.8 604.3,684.3 				"/>
				<g id="XMLID_1586_">
					
						<rect id="XMLID_1590_" x="284.2" y="585.7" transform="matrix(0.9988 -4.925268e-002 4.925268e-002 0.9988 -30.3716 15.94)" class="st13" width="48.2" height="77"/>
					
						<rect id="XMLID_1589_" x="288.1" y="592" transform="matrix(0.9988 -4.925268e-002 4.925268e-002 0.9988 -30.3716 15.94)" class="st37" width="40.3" height="64.5"/>
					
						<rect id="XMLID_1588_" x="290.5" y="595.9" transform="matrix(0.9988 -4.925268e-002 4.925268e-002 0.9988 -30.3716 15.94)" class="st38" width="35.4" height="56.6"/>
					
						<rect id="XMLID_1587_" x="290.5" y="622.2" transform="matrix(0.9988 -4.925268e-002 4.925268e-002 0.9988 -30.3716 15.94)" class="st37" width="35.4" height="4.1"/>
				</g>
				<g id="XMLID_1579_">
					
						<rect id="XMLID_1583_" x="339.5" y="583" transform="matrix(0.9988 -4.925268e-002 4.925268e-002 0.9988 -30.17 18.6632)" class="st13" width="48.2" height="77"/>
					
						<rect id="XMLID_1582_" x="343.4" y="589.3" transform="matrix(0.9988 -4.925268e-002 4.925268e-002 0.9988 -30.17 18.6632)" class="st37" width="40.3" height="64.5"/>
					
						<rect id="XMLID_1581_" x="345.9" y="593.2" transform="matrix(0.9988 -4.925268e-002 4.925268e-002 0.9988 -30.17 18.6632)" class="st38" width="35.4" height="56.6"/>
					
						<rect id="XMLID_1580_" x="345.9" y="619.5" transform="matrix(0.9988 -4.925268e-002 4.925268e-002 0.9988 -30.17 18.6632)" class="st37" width="35.4" height="4.1"/>
				</g>
				<g id="XMLID_1572_">
					
						<rect id="XMLID_1576_" x="453.8" y="575.1" transform="matrix(0.9988 -4.925268e-002 4.925268e-002 0.9988 -30.5901 24.5257)" class="st13" width="57.2" height="115.8"/>
					
						<rect id="XMLID_1575_" x="459.4" y="582.4" transform="matrix(0.9988 -4.925268e-002 4.925268e-002 0.9988 -30.6612 24.5309)" class="st37" width="46.1" height="104"/>
					
						<rect id="XMLID_1574_" x="467.6" y="590.2" transform="matrix(0.9988 -4.925268e-002 4.925268e-002 0.9988 -30.0011 24.4821)" class="st38" width="28.4" height="61.6"/>
					
						<rect id="XMLID_1573_" x="467.2" y="611.2" transform="matrix(-0.9988 4.925268e-002 -4.925268e-002 -0.9988 992.3196 1201.0551)" class="st37" width="28.4" height="3"/>
				</g>
				<polygon id="XMLID_1569_" class="st13" points="260,599.8 277.1,570.4 547.3,557.1 561.3,584.9 559.8,553.2 258.5,568 				"/>
				
					<rect id="XMLID_1566_" x="206.2" y="694.3" transform="matrix(-0.9988 4.925268e-002 -4.925268e-002 -0.9988 867.3259 1369.6741)" class="st10" width="421.1" height="2.5"/>
				<g id="XMLID_1553_">
					<g id="XMLID_1562_">
						<polygon id="XMLID_1563_" class="st13" points="658.1,470.4 388.5,307.9 155.2,494.9 139.5,475.4 386.5,277.3 671.1,448.9 
													"/>
					</g>
					<g id="XMLID_1554_">
						<polygon id="XMLID_1559_" class="st37" points="386.5,277.3 671.1,448.9 676.1,452 679.2,446.9 674.1,443.9 389.5,272.3 
							386,270.2 382.8,272.7 135.8,470.8 131.2,474.5 134.9,479.1 139.5,475.4 						"/>
						<polygon id="XMLID_1556_" class="st37" points="658.1,470.4 388.5,307.9 155.2,494.9 150.6,498.6 154.3,503.2 158.9,499.5 
							389,315 655.1,475.4 660.1,478.5 663.2,473.4 						"/>
						<path id="XMLID_1555_" class="st10" d="M154.3,503.2l14.5-12l14.5-11.9l29.1-23.8l58.4-47.4l29.2-23.7l29.3-23.6l58.6-47.1
							l1-0.8l1.1,0.7l67.7,40.9l33.8,20.5c11.3,6.8,22.6,13.7,33.8,20.6l67.5,41.3l33.7,20.8l16.8,10.4l16.8,10.5l-17.1-10l-17.1-10
							l-34.1-20.1L523.8,398c-11.4-6.7-22.7-13.5-34-20.3l-34-20.3L388,316.6l2.1-0.1l-58.8,47L302,386.9l-29.5,23.4l-59,46.7
							l-29.6,23.2l-14.8,11.6L154.3,503.2z"/>
					</g>
				</g>
			</g>
			<g id="XMLID_11_">
				
					<rect id="XMLID_364_" x="168.5" y="708.7" transform="matrix(0.9991 -4.156689e-002 4.156689e-002 0.9991 -29.9313 8.256)" class="st54" width="30.2" height="30.4"/>
				
					<rect id="XMLID_361_" x="204.3" y="694.3" transform="matrix(0.9991 -4.156689e-002 4.156689e-002 0.9991 -29.5804 9.5047)" class="st54" width="19" height="43.5"/>
				
					<rect id="XMLID_358_" x="213.8" y="693.9" transform="matrix(0.9991 -4.156689e-002 4.156689e-002 0.9991 -29.5558 9.8983)" class="st55" width="19" height="43.5"/>
				
					<rect id="XMLID_355_" x="177.3" y="708.3" transform="matrix(0.9991 -4.156689e-002 4.156689e-002 0.9991 -29.9083 8.6236)" class="st55" width="30.2" height="30.4"/>
				
					<rect id="XMLID_352_" x="227.4" y="706.3" transform="matrix(0.9991 -4.156689e-002 4.156689e-002 0.9991 -29.7785 10.7033)" class="st54" width="30.2" height="30.4"/>
				
					<rect id="XMLID_349_" x="236.2" y="705.9" transform="matrix(0.9991 -4.156689e-002 4.156689e-002 0.9991 -29.7555 11.071)" class="st55" width="30.2" height="30.4"/>
				<polygon id="XMLID_346_" class="st56" points="206.9,707.7 177.9,739.3 208.1,738 				"/>
				
					<rect id="XMLID_343_" x="214.2" y="718.6" transform="matrix(0.9991 -4.156689e-002 4.156689e-002 0.9991 -30.0194 9.8107)" class="st56" width="13.4" height="16.3"/>
				
					<rect id="XMLID_309_" x="186.6" y="721.8" transform="matrix(0.9991 -4.156689e-002 4.156689e-002 0.9991 -30.1648 9.1999)" class="st54" width="39" height="16.3"/>
				
					<rect id="XMLID_306_" x="194.3" y="721.5" transform="matrix(0.9991 -4.156689e-002 4.156689e-002 0.9991 -30.145 9.5174)" class="st55" width="39" height="16.3"/>
				<polygon id="XMLID_305_" class="st57" points="272.7,697.5 242.5,698.7 235.6,706.5 265.8,705.3 				"/>
				<polygon id="XMLID_304_" class="st58" points="222,699.6 230.9,699.2 235.6,706.5 226.8,706.9 				"/>
			</g>
			<g id="XMLID_4_">
				
					<rect id="XMLID_65_" x="140.5" y="728.6" transform="matrix(0.9987 -5.081535e-002 5.081535e-002 0.9987 -36.7542 20.8078)" class="st12" width="500.6" height="9.2"/>
				
					<rect id="XMLID_28_" x="135.4" y="760.7" transform="matrix(-0.9987 5.081535e-002 -5.081535e-002 -0.9987 318.1888 1528.0914)" class="st59" width="8.6" height="14.8"/>
				
					<rect id="XMLID_5_" x="626.4" y="563.2" transform="matrix(-0.9987 5.081535e-002 -5.081535e-002 -0.9987 1296.1273 1273.1467)" class="st12" width="11" height="179.8"/>
				<path id="XMLID_210_" class="st12" d="M894.3,731.1c0,0-33.4,53.4-133.8,20.9c-100.4-32.5,100.3-81.2,116.7-58
					C893.6,717.2,894.3,731.1,894.3,731.1z"/>
				
					<linearGradient id="XMLID_416_" gradientUnits="userSpaceOnUse" x1="865.1832" y1="939.8931" x2="864.7045" y2="987.7703" gradientTransform="matrix(0.989 -0.1479 0.1479 0.989 -180.1263 -100.4594)">
					<stop  offset="0" style="stop-color:#54696E"/>
					<stop  offset="0.161" style="stop-color:#586C71"/>
					<stop  offset="0.3198" style="stop-color:#647679"/>
					<stop  offset="0.4777" style="stop-color:#788788"/>
					<stop  offset="0.6351" style="stop-color:#939E9C"/>
					<stop  offset="0.7922" style="stop-color:#B7BBB6"/>
					<stop  offset="0.9471" style="stop-color:#E2DFD5"/>
					<stop  offset="1" style="stop-color:#F3EDE1"/>
				</linearGradient>
				<polygon id="XMLID_8_" class="st60" points="827.4,746.1 814.9,748 808,702.1 820.5,700.2 				"/>
				<path id="XMLID_213_" class="st61" d="M907.7,661.6c-1.6-0.8-2.9-2.2-3-4.4c-0.1-2.9,1.3-4.6,2.6-5.6c1.5-1.1,2.4-2.8,2.3-4.7
					c-0.1-2.1-1.4-3.9-3.3-4.7l-19.6-8.3c-15.3-6.5-31.8-9.4-48.4-8.5l-68.9,3.5l-27.6-52.2c-2.9-5.4-8.7-8.7-14.9-8.4l-60.9,3.1
					c-6.9,0.4-12.9,5.1-14.6,11.8L639.8,628c-2.1,7.9-2.9,16.1-2.5,24.2l4.9,95.8c0.4,7.4,6.3,13.4,13.8,13.9
					c38.2,2.6,76.5,2.9,114.9,1.1c3.3-33.4,26.7-61,56.8-62.6c28-1.4,54.6,20.2,57.7,50.2c1.7-0.3,10-0.9,11.7-1.2
					c6.9-1.2,12-6.9,12.4-13.8l3.4-65.6C913,666.6,910.9,663.3,907.7,661.6z"/>
				<g id="XMLID_285_">
					<path id="XMLID_286_" class="st38" d="M751.8,640.1c12-1.7,17.6-11.2,17.6-11.2l-27.6-52.2c-2.9-5.4-8.7-8.7-14.9-8.4
						l-60.9,3.1c-6.9,0.4-12.9,5.1-14.6,11.8L638.3,634c-1,3.9-1.4,8-1.2,12.1l0,0C661.1,645,741.7,641.6,751.8,640.1z"/>
					<linearGradient id="XMLID_417_" gradientUnits="userSpaceOnUse" x1="699.0775" y1="593.4747" x2="698.4109" y2="644.1414">
						<stop  offset="0" style="stop-color:#22303D"/>
						<stop  offset="1" style="stop-color:#2A776C"/>
					</linearGradient>
					<path id="XMLID_268_" class="st62" d="M758.2,632.3c-4.8-5.3-11.1-7.2-17.6-9c-1.2,1.7-2.3,3.5-3.2,5.4
						c-5,0.5-15.7,3.2-17.7,3.4c-1.8,0.2-4.1-0.4-5.7-0.9c-4.3-1.3-7.4-3.3-10.4-6.4c-3.8-3.9-7.3-4.2-12.5-5.6
						c0.1-0.7,0.2-3.6,0.2-3.4c2.6-1,5.6-1,6.4-4.3c0.7-2.8-0.1-6.7,0-9.6c1.7-0.3,8.2-1.2,8.8-3.2c1-2.8-9.7-0.8-11.1-0.8
						c-1.5-1.9-0.9-3.9-3.4-5.1c-2-1-4.6-0.4-6.8-0.2c-7.8,0.6-11,3.4-10.5,11.5c0.2,3.3,1.6,6.5,2.7,9.5c0.9,2.3,2.6,4.3,2.1,6.9
						c-0.6,2.9-2.4,5.2-2.6,8.5c-0.4-4.1-1.5-11.5-6.1-12.9c-2-0.6-4.7-0.2-6.9-0.2c-1,0-1.9-0.1-2.6,0l-9.6-32.6
						c-0.2,0-0.2,0-0.3,0L638.3,634c-1,3.9-1.4,8-1.2,12.1c24.1-1,104.7-4.4,114.8-5.9c0.7-0.1,1.3-0.2,1.9-0.4c-0.7,0-1.3,0-2-0.1
						c1.9-0.3,3.8-0.7,5.7-1.5C760.8,636.8,760.5,634.9,758.2,632.3z M726.9,638.9c2.4-0.6,4.9-1.3,6.8-1.7
						c-0.3,0.6-0.5,1.3-0.8,1.9C730.9,639.1,728.9,639,726.9,638.9z"/>
				</g>
				<path id="XMLID_24_" class="st12" d="M425.2,754.8C410,739,394.9,724,372.5,722.9c-28.1-1.4-61,2.4-75.4,29.7
					c-10.6,0.5-20.7,1.1-31.1,1.6c-0.8,7.4,7.1,14.8,27.9,21.6c90.9,29.4,126.9-11.6,132.9-19.6
					C426.2,755.8,425.7,755.3,425.2,754.8z"/>
				<path id="XMLID_44_" class="st12" d="M797.6,774.1l-39.9,2c-5,0.3-9.3-3.6-9.5-8.5l0,0l-99.6,5.1l0.4,7.4c0.2,4.1-3,7.6-7.1,7.8
					L520,794.1c-4.1,0.2-7.7-2.9-7.9-7v0l-130,6.6l18.8-41.5l400.7,1.5L797.6,774.1z"/>
				
					<linearGradient id="XMLID_418_" gradientUnits="userSpaceOnUse" x1="408.951" y1="765.2889" x2="408.951" y2="826.0165" gradientTransform="matrix(0.9987 -5.081535e-002 5.081508e-002 0.9987 -59.0953 -57.8347)">
					<stop  offset="0" style="stop-color:#54696E"/>
					<stop  offset="0.1738" style="stop-color:#839090"/>
					<stop  offset="0.352" style="stop-color:#ABB1AD"/>
					<stop  offset="0.5274" style="stop-color:#CACBC4"/>
					<stop  offset="0.6968" style="stop-color:#E1DED4"/>
					<stop  offset="0.8574" style="stop-color:#EEE9DE"/>
					<stop  offset="1" style="stop-color:#F3EDE1"/>
				</linearGradient>
				<path id="XMLID_25_" class="st63" d="M142.1,778.8c2,9.3,10.6,15.8,20.2,15.3l134.3-6.8c3.4-33.3,28.3-60.9,58.2-62.4
					c29.9-1.5,62.7,23.1,63.1,56.2l210.9-10.7c10.8-0.6,14.1-9.4,13.5-20.1l-1.3-25.1l-221.2,12v0c-5.7-11.9-17.4-19.8-30.6-20.6
					L320,721c-8.6,1.6-16.4,6.2-21.9,13l-7.2,8.9l-149.8,7.6L142.1,778.8z"/>
				
					<linearGradient id="XMLID_419_" gradientUnits="userSpaceOnUse" x1="724.9703" y1="666.8428" x2="724.9703" y2="734.4991" gradientTransform="matrix(0.9987 -5.081535e-002 5.081508e-002 0.9987 -59.0953 -57.8347)">
					<stop  offset="0" style="stop-color:#54696E"/>
					<stop  offset="5.185550e-002" style="stop-color:#718183"/>
					<stop  offset="0.1275" style="stop-color:#939D9C"/>
					<stop  offset="0.211" style="stop-color:#B1B6B1"/>
					<stop  offset="0.3026" style="stop-color:#C9CAC3"/>
					<stop  offset="0.4057" style="stop-color:#DCDAD0"/>
					<stop  offset="0.5269" style="stop-color:#E9E5DA"/>
					<stop  offset="0.6832" style="stop-color:#F1EBDF"/>
					<stop  offset="1" style="stop-color:#F3EDE1"/>
				</linearGradient>
				<path id="XMLID_186_" class="st64" d="M757.7,635.3l-13.3-45l3.2-2.6l-5.8-10.9c-2.9-5.4-8.7-8.7-14.9-8.4l-60.9,3.1
					c-6.9,0.4-12.9,5.1-14.6,11.8l-2.9,11.1c2.7,4.1,4,9,3.4,14.1l-5.2,37.6l23.1-1.2l4.5-50.9c0.3-3.6,3.2-6.4,6.8-6.6l38.6-2
					c3.3-0.2,6.3,1.9,7.3,5.1l14.6,49.3c0.9,2.9,3.9,4.7,6.9,3.9l5.1-1.3C756.8,641.5,758.6,638.3,757.7,635.3z"/>
				<g id="XMLID_435_">
					<defs>
						<filter id="Adobe_OpacityMaskFilter" filterUnits="userSpaceOnUse" x="760.4" y="663.3" width="152.4" height="85.5">
							<feFlood  style="flood-color:white;flood-opacity:1" result="back"/>
							<feBlend  in="SourceGraphic" in2="back" mode="normal"/>
						</filter>
					</defs>
					<mask maskUnits="userSpaceOnUse" x="760.4" y="663.3" width="152.4" height="85.5" id="XMLID_420_">
						<g id="XMLID_936_" class="st65">
							<defs>
								<filter id="Adobe_OpacityMaskFilter_1_" filterUnits="userSpaceOnUse" x="760.4" y="663.3" width="152.4" height="85.5">
									<feFlood  style="flood-color:white;flood-opacity:1" result="back"/>
									<feBlend  in="SourceGraphic" in2="back" mode="normal"/>
								</filter>
							</defs>
							<mask maskUnits="userSpaceOnUse" x="760.4" y="663.3" width="152.4" height="85.5" id="XMLID_420_">
								<g id="XMLID_1438_" class="st66">
								</g>
							</mask>
							
								<linearGradient id="XMLID_421_" gradientUnits="userSpaceOnUse" x1="777.424" y1="808.3027" x2="933.6768" y2="808.3027" gradientTransform="matrix(0.9987 -5.081535e-002 5.081508e-002 0.9987 -59.0953 -57.8347)">
								<stop  offset="0" style="stop-color:#FFFFFF"/>
								<stop  offset="0.2518" style="stop-color:#C3C3C3"/>
								<stop  offset="0.8297" style="stop-color:#2D2D2D"/>
								<stop  offset="1" style="stop-color:#000000"/>
							</linearGradient>
							<path id="XMLID_937_" class="st67" d="M910,663.3c-20.2,0.9-76,4-91,10.4c-18.4,7.9-47.5,28-58.6,75c0,0,33.3-69.4,90-71.9
								c28.6-1.3,49-2.1,62.2-2.6l0.2-4C912.9,667.5,911.9,665.1,910,663.3z"/>
						</g>
					</mask>
					<path id="XMLID_445_" class="st68" d="M910,663.3c-20.2,0.9-76,4-91,10.4c-18.4,7.9-47.5,28-58.6,75c0,0,33.3-69.4,90-71.9
						c28.6-1.3,49-2.1,62.2-2.6l0.2-4C912.9,667.5,911.9,665.1,910,663.3z"/>
				</g>
				<defs>
					<filter id="Adobe_OpacityMaskFilter_2_" filterUnits="userSpaceOnUse" x="689.2" y="648.5" width="220.3" height="31.7">
						<feFlood  style="flood-color:white;flood-opacity:1" result="back"/>
						<feBlend  in="SourceGraphic" in2="back" mode="normal"/>
					</filter>
				</defs>
				<mask maskUnits="userSpaceOnUse" x="689.2" y="648.5" width="220.3" height="31.7" id="XMLID_422_">
					<g id="XMLID_929_" class="st69">
						<defs>
							<filter id="Adobe_OpacityMaskFilter_3_" filterUnits="userSpaceOnUse" x="689.2" y="648.5" width="220.3" height="31.7">
								<feFlood  style="flood-color:white;flood-opacity:1" result="back"/>
								<feBlend  in="SourceGraphic" in2="back" mode="normal"/>
							</filter>
						</defs>
						<mask maskUnits="userSpaceOnUse" x="689.2" y="648.5" width="220.3" height="31.7" id="XMLID_422_">
							<g id="XMLID_1433_" class="st70">
							</g>
						</mask>
						
							<linearGradient id="XMLID_423_" gradientUnits="userSpaceOnUse" x1="820.4743" y1="761.9103" x2="820.9342" y2="772.2418" gradientTransform="matrix(0.9987 -5.081535e-002 5.081508e-002 0.9987 -59.0953 -57.8347)">
							<stop  offset="0" style="stop-color:#FFFFFF"/>
							<stop  offset="0.2518" style="stop-color:#C3C3C3"/>
							<stop  offset="0.8297" style="stop-color:#2D2D2D"/>
							<stop  offset="1" style="stop-color:#000000"/>
						</linearGradient>
						<path id="XMLID_930_" class="st71" d="M904.7,657.2c-0.1-2.9,1.3-4.6,2.6-5.6c1.1-0.8,1.9-1.9,2.2-3.2
							c-5.6,3.6-14.7,7.6-27.4,7.9c-23.1,0.6-131,9.2-131,9.2s-1.2,9.2-61.9,14.6c0,0,45.1-0.8,62.4-8.4c0,0,114.9-7.3,153.7-12.5
							C904.9,658.7,904.7,658,904.7,657.2z"/>
					</g>
				</mask>
				
					<linearGradient id="XMLID_424_" gradientUnits="userSpaceOnUse" x1="820.4743" y1="761.9103" x2="820.9342" y2="772.2418" gradientTransform="matrix(0.9987 -5.081535e-002 5.081508e-002 0.9987 -59.0953 -57.8347)">
					<stop  offset="0" style="stop-color:#521A2A"/>
					<stop  offset="1" style="stop-color:#591D2C"/>
				</linearGradient>
				<path id="XMLID_189_" class="st72" d="M904.7,657.2c-0.1-2.9,1.3-4.6,2.6-5.6c1.1-0.8,1.9-1.9,2.2-3.2
					c-5.6,3.6-14.7,7.6-27.4,7.9c-23.1,0.6-131,9.2-131,9.2s-1.2,9.2-61.9,14.6c0,0,45.1-0.8,62.4-8.4c0,0,114.9-7.3,153.7-12.5
					C904.9,658.7,904.7,658,904.7,657.2z"/>
				<g id="XMLID_221_">
					<path id="XMLID_224_" class="st73" d="M309.9,788.7c-2.2-27.5,18.6-50.9,46.5-52.4c27.9-1.4,52.2,19.7,54.4,47.2
						c2.2,27.5-18.6,50.9-46.5,52.4C336.5,837.4,312.1,816.2,309.9,788.7z"/>
					<path id="XMLID_226_" class="st74" d="M330.9,787.6c-1.3-16.1,10.9-29.8,27.2-30.7c16.3-0.8,30.6,11.6,31.9,27.7
						c1.3,16.1-10.9,29.8-27.2,30.7C346.4,816.1,332.1,803.7,330.9,787.6z"/>
					<path id="XMLID_227_" class="st75" d="M334.5,787.5c-1.1-14.1,9.6-26.1,23.9-26.9c14.3-0.7,26.8,10.1,27.9,24.2
						c1.1,14.1-9.6,26.1-23.9,26.9C348.1,812.4,335.6,801.6,334.5,787.5z"/>
					<path id="XMLID_229_" class="st76" d="M347.1,786.8c-0.6-7.2,4.9-13.4,12.2-13.8c7.3-0.4,13.7,5.2,14.3,12.4
						c0.6,7.2-4.9,13.4-12.2,13.8C354.1,799.6,347.7,794.1,347.1,786.8z"/>
				</g>
				<g id="XMLID_6_">
					<path id="XMLID_16_" class="st73" d="M780.4,788.7c-2.2-27.5,18.6-50.9,46.5-52.4c27.9-1.4,52.2,19.7,54.4,47.2
						s-18.6,50.9-46.5,52.4C806.9,837.4,782.6,816.2,780.4,788.7z"/>
					<path id="XMLID_13_" class="st74" d="M801.3,787.6c-1.3-16.1,10.9-29.8,27.2-30.7c16.3-0.8,30.6,11.6,31.9,27.7
						c1.3,16.1-10.9,29.8-27.2,30.7C816.8,816.1,802.6,803.7,801.3,787.6z"/>
					<path id="XMLID_10_" class="st75" d="M804.9,787.5c-1.1-14.1,9.6-26.1,23.9-26.9c14.3-0.7,26.8,10.1,27.9,24.2
						c1.1,14.1-9.6,26.1-23.9,26.9C818.6,812.4,806.1,801.6,804.9,787.5z"/>
					<path id="XMLID_7_" class="st76" d="M817.5,786.8c-0.6-7.2,4.9-13.4,12.2-13.8c7.3-0.4,13.7,5.2,14.3,12.4
						c0.6,7.2-4.9,13.4-12.2,13.8C824.5,799.6,818.1,794.1,817.5,786.8z"/>
				</g>
				
					<ellipse id="XMLID_214_" transform="matrix(-0.9987 5.081535e-002 -5.081535e-002 -0.9987 1360.4001 1294.301)" class="st10" cx="663.7" cy="664.4" rx="6.2" ry="6.1"/>
				<defs>
					<filter id="Adobe_OpacityMaskFilter_4_" filterUnits="userSpaceOnUse" x="655.2" y="661.5" width="33.2" height="7.5">
						<feFlood  style="flood-color:white;flood-opacity:1" result="back"/>
						<feBlend  in="SourceGraphic" in2="back" mode="normal"/>
					</filter>
				</defs>
				<mask maskUnits="userSpaceOnUse" x="655.2" y="661.5" width="33.2" height="7.5" id="XMLID_425_">
					<g id="XMLID_803_" class="st77">
						<defs>
							<filter id="Adobe_OpacityMaskFilter_5_" filterUnits="userSpaceOnUse" x="655.2" y="661.5" width="33.2" height="7.5">
								<feFlood  style="flood-color:white;flood-opacity:1" result="back"/>
								<feBlend  in="SourceGraphic" in2="back" mode="normal"/>
							</filter>
						</defs>
						<mask maskUnits="userSpaceOnUse" x="655.2" y="661.5" width="33.2" height="7.5" id="XMLID_425_">
							<g id="XMLID_1427_" class="st78">
							</g>
						</mask>
						
							<linearGradient id="XMLID_426_" gradientUnits="userSpaceOnUse" x1="693.1722" y1="756.3724" x2="693.1722" y2="762.2957" gradientTransform="matrix(0.9987 -5.081535e-002 5.081508e-002 0.9987 -59.0953 -57.8347)">
							<stop  offset="0" style="stop-color:#000000"/>
							<stop  offset="0.1703" style="stop-color:#2D2D2D"/>
							<stop  offset="0.7482" style="stop-color:#C3C3C3"/>
							<stop  offset="1" style="stop-color:#FFFFFF"/>
						</linearGradient>
						<path id="XMLID_804_" class="st79" d="M685.5,667.6l-27.1,1.4c-1.7,0.1-3.1-1.2-3.2-2.9l0,0c-0.1-1.7,1.2-3.1,2.9-3.2
							l27.1-1.4c1.7-0.1,3.1,1.2,3.2,2.9v0C688.5,666.1,687.2,667.5,685.5,667.6z"/>
					</g>
				</mask>
				
					<linearGradient id="XMLID_427_" gradientUnits="userSpaceOnUse" x1="693.1722" y1="756.3724" x2="693.1722" y2="762.2957" gradientTransform="matrix(0.9987 -5.081535e-002 5.081508e-002 0.9987 -59.0953 -57.8347)">
					<stop  offset="0" style="stop-color:#591D2C"/>
					<stop  offset="1" style="stop-color:#521A2A"/>
				</linearGradient>
				<path id="XMLID_68_" class="st80" d="M685.5,667.6l-27.1,1.4c-1.7,0.1-3.1-1.2-3.2-2.9l0,0c-0.1-1.7,1.2-3.1,2.9-3.2l27.1-1.4
					c1.7-0.1,3.1,1.2,3.2,2.9v0C688.5,666.1,687.2,667.5,685.5,667.6z"/>
				<path id="XMLID_211_" class="st10" d="M685.4,666.4l-27.1,1.4c-1.7,0.1-3.1-1.2-3.2-2.9v0c-0.1-1.7,1.2-3.1,2.9-3.2l27.1-1.4
					c1.7-0.1,3.1,1.2,3.2,2.9l0,0C688.4,664.9,687.1,666.3,685.4,666.4z"/>
				<g id="XMLID_9_">
					<path id="XMLID_23_" class="st12" d="M637.6,577.6l-10.5,0.5l-0.2-4.7l10.5-0.5c1.3-0.1,2.4,0.9,2.5,2.2v0
						C639.9,576.4,638.9,577.6,637.6,577.6z"/>
					<path id="XMLID_26_" class="st12" d="M639.2,609.6l-10.5,0.5l-0.2-4.7l10.5-0.5c1.3-0.1,2.4,0.9,2.5,2.2l0,0
						C641.5,608.4,640.5,609.5,639.2,609.6z"/>
				</g>
				
					<rect id="XMLID_27_" x="137.3" y="758.7" transform="matrix(-0.9987 5.081535e-002 -5.081535e-002 -0.9987 322.0066 1527.7997)" class="st12" width="8.6" height="18.6"/>
				
					<rect id="XMLID_36_" x="261.7" y="761.4" transform="matrix(-0.9987 5.081535e-002 -5.081535e-002 -0.9987 582.4013 1511.5277)" class="st59" width="20.6" height="3.6"/>
				<g id="XMLID_47_">
					
						<rect id="XMLID_42_" x="427" y="749" transform="matrix(0.9987 -5.081535e-002 5.081535e-002 0.9987 -38.0032 23.2541)" class="st81" width="22.7" height="20"/>
					
						<rect id="XMLID_50_" x="449.7" y="747.9" transform="matrix(0.9987 -5.081535e-002 5.081535e-002 0.9987 -37.9151 24.4061)" class="st12" width="22.7" height="20"/>
					
						<rect id="XMLID_53_" x="472.4" y="746.7" transform="matrix(0.9987 -5.081535e-002 5.081535e-002 0.9987 -37.8271 25.5582)" class="st81" width="22.7" height="20"/>
					
						<rect id="XMLID_54_" x="495.1" y="745.6" transform="matrix(0.9987 -5.081535e-002 5.081535e-002 0.9987 -37.7391 26.7102)" class="st12" width="22.7" height="20"/>
					
						<rect id="XMLID_55_" x="517.8" y="744.4" transform="matrix(0.9987 -5.081535e-002 5.081535e-002 0.9987 -37.6511 27.8622)" class="st81" width="22.7" height="20"/>
					
						<rect id="XMLID_57_" x="540.5" y="743.2" transform="matrix(0.9987 -5.081535e-002 5.081535e-002 0.9987 -37.5631 29.0142)" class="st12" width="22.7" height="20"/>
					
						<rect id="XMLID_59_" x="563.2" y="742.1" transform="matrix(0.9987 -5.081535e-002 5.081535e-002 0.9987 -37.475 30.1663)" class="st81" width="22.7" height="20"/>
					
						<rect id="XMLID_60_" x="585.9" y="740.9" transform="matrix(0.9987 -5.081535e-002 5.081535e-002 0.9987 -37.387 31.3183)" class="st12" width="22.7" height="20"/>
					
						<rect id="XMLID_64_" x="608.6" y="739.8" transform="matrix(0.9987 -5.081535e-002 5.081535e-002 0.9987 -37.299 32.4703)" class="st81" width="22.7" height="20"/>
				</g>
				<g id="XMLID_89_">
					<circle id="XMLID_73_" class="st10" cx="760" cy="645.2" r="4.9"/>
					<g id="XMLID_69_">
						
							<ellipse id="XMLID_66_" transform="matrix(0.9987 -5.081535e-002 5.081535e-002 0.9987 -30.5407 40.321)" class="st12" cx="777.7" cy="620.8" rx="3.4" ry="13"/>
						<g id="XMLID_67_">
							<path id="XMLID_72_" class="st12" d="M767.5,646.1l-7.3,0.4c-0.6,0-1.1-0.4-1.1-1c0-0.6,0.4-1.1,1-1.1l7.3-0.4
								c9.1-0.5,16.1-8.2,15.6-17.3l-0.3-6.2c0-0.6,0.4-1.1,1-1.1s1.1,0.4,1.1,1l0.3,6.2C785.7,636.9,777.8,645.6,767.5,646.1z"/>
						</g>
						<g id="XMLID_70_">
							<path id="XMLID_71_" class="st12" d="M787.3,623.1l-7.9,0.4c-0.6,0-1.1-0.4-1.1-1c0-0.6,0.4-1.1,1-1.1l7.9-0.4
								c0.6,0,1.1,0.4,1.1,1S787.9,623,787.3,623.1z"/>
						</g>
					</g>
				</g>
			</g>
		</g>
		<g id="XMLID_385_">
			<path id="XMLID_293_" class="st82" d="M1420.4,941.3c-10.3-7.9-16.3-20.7-27.2-27.6c-11-6.9-30.7-1.3-28.7,11.5
				c-2.1-10.1-15.1-14.5-24.9-11.4c-9.8,3.1-16.9,11.3-23.6,19.2c-13.3-20.7-49.3-19.5-61.2,2c-5.4-12.2-19.3-20-32.5-18.3
				s-24.7,12.7-26.9,25.8c2.1-12.3-4.9-25.6-16.3-30.6c-11.4-5.1-26-1.5-33.7,8.3c4.5-19.9-9-42.2-28.8-47.5
				c-19.8-5.2-42.5,7.5-48.4,27.1c-24.6-13.2-59.5-0.6-69.9,25.3c-29.6-9.2-64.9,9.8-73.5,39.6c-4.3-16-29.6-20.6-39.2-7
				c4.7-11.5,0.8-25.9-9.2-33.3c-9.9-7.4-24.9-7.2-34.5,0.6c13.4-12.5-0.5-37.4-18.7-39.9c-18.2-2.5-35.1,9-49.3,20.8
				c0.4-14.3-18.9-21.4-32.6-17.1c-13.7,4.3-24.5,15-37.9,20.1c-18,6.9-45.6,10.1-44.4,29.4c-16-20.8-55-14.5-63.6,10.3
				c-4.3-17.2-33.1-20.1-40.7-4.1c5-20.7-23-40.3-40.8-28.5c-9-21.8-33.2-36.4-56.7-34.1c-23.5,2.2-44.5,21-49.3,44.2
				c-25.4-23.1-73.1-10.9-84.3,21.5c-4.2-7.3-15.8-8.7-21.7-2.7c-1.5-11.7-20.1-15.9-26.5-6.1c-3.3-21.5-36.7-29.8-49.7-12.4
				c-7-21.5-34.3-31.4-56.1-25.1c-21.7,6.3-38,24.7-49.1,44.4c-23.6-8.2-52.2,1.8-65.7,22.9c0.6-15.5-20-27.1-32.9-18.6
				c-27.8-12.6-64.9,9.9-66.7,40.4c-0.8,13.7-4.9,27.3-4.8,41c0,2.6,2.1,6.4,4.2,4.7h1460L1420.4,941.3z"/>
			<path id="XMLID_291_" class="st82" d="M1393.1,892.9c-0.6-1.8-0.3-3.9-2.2-5.3c-2.5-1.9-5.4-2.2-8.4-1.9
				c-2.8,0.4-5.5,1.2-8.3,1.9c-1.5,0.4-2.9,0.7-4.4,0.8c-2.2,0.2-3.4-1.1-3.1-3.3c0.1-1.1,0.4-2.1,0.8-3.1
				c2.4-5.8,5.6-11.2,8.2-16.9c2.1-4.5,3.8-9.1,3.3-14.2c-0.4-4.1-3.2-5.8-6.9-4.1c-3.1,1.4-5.5,3.7-8,5.8c-2.2,1.7-4.2,3.7-6.7,4.8
				c-1.9,0.9-3.3,0.2-3.9-1.8c-0.5-1.5-0.5-3.1-0.2-4.6c0.8-5.8,3-11.1,4.9-16.6c1.6-4.6,3.2-9.1,3.8-13.9c0.9-6.3-4.6-9.2-8.8-8.6
				c-2,0.3-3.8,1.2-5.5,2.3c-2.4,1.4-4.7,2.9-7.4,3.8c-2.6,0.9-4.2,0.3-5.7-2c-0.9-1.4-1.6-2.8-2.3-4.3c-1.7-3.8-2.8-7.8-5-11.4
				c-1-1.6-2.2-2.7-4.1-2.9c-0.7,0-1.3,0-2,0c-2.4,0.1-3.9,1.2-4.9,3.3c-0.8,1.6-1.5,3.2-1.7,4.9c-0.8,5.3-0.4,10.7-0.1,16
				c0.1,2.3,0.3,4.6,0,6.8c-0.2,2-1.2,2.3-2.8,1.3c-1.2-0.8-2.3-1.8-3.5-2.5c-4.4-2.3-8.9,0.4-9,5.3c0,2.8,1.2,5.2,2.7,7.5
				c2.8,4.4,6,8.5,9.1,12.8c1.9,2.5,3.6,5.2,4.2,8.3c0.5,2.2-0.4,3.7-2.5,4.4c-0.7,0.2-1.5,0.5-2.3,0.5c-2.1,0-4.2,0.3-6.3,0.5
				c-3.1,0.3-6.3,1.2-6.2,5.5c0,0.1-0.1,0.2-0.2,0.3c0,0.1,0,0.2,0,0.4c0.4,0.9,0.1,1.9,0.2,2.8c-0.2,3.5,1.4,5.9,4.3,7.7
				c3.7,2.3,7.9,3.4,11.9,5.2c3.8,1.7,7.3,3.7,9,7.8c2,4.7,1,8-3.6,10.3c-1.4,0.7-3,1.4-4.3,2.3c-2.8,2.1-3.9,4.8-3.4,8.4
				c0.5,3.2,2.5,5.3,4.9,7.1c3.7,2.9,8,4.6,12.4,6.2c8.8,3.1,17.8,5,27,6.6c1.2,0.2,2,0.6,2.4,1.8c2.1,6.2,5.9,11.3,11,15.3
				c3.1,2.4,6.1,5.1,10.2,5.9c0.5,0,1,0,1.4,0c0.3-0.2,0.7-0.2,1-0.4c1.4-0.4,2.1-1.3,2.3-2.7c0.2-1.5-0.4-2.6-1.8-3.2
				c-2.9-1.5-6-2.7-8.8-4.4c-4.3-2.7-8-6-10.3-10.5c-0.6-1.2-0.5-2,0.7-2.9c6.1-4.3,11.9-9,16.5-14.9c5.4-7.1,11.2-14,12.4-23.4
				c0-0.2,0-0.5,0-0.7c-0.3-1.2-0.3-2.4,0-3.6C1393.1,893.2,1393.1,893,1393.1,892.9z"/>
			<g id="XMLID_284_">
				<g id="XMLID_550_">
					<path id="XMLID_573_" class="st82" d="M53.1,948.6L53.1,948.6c-1.3,0-2.6,0-3.8,0c0-0.1,0-0.3-0.1-0.4c0,0,0,0,0,0
						c-0.2-0.1-0.5-0.1-0.7-0.1c-4.6,0.5-9.2,0.1-13.8,0.2c-0.1,0-0.3-0.1-0.4-0.1c0,0.1,0,0.3,0,0.4c-0.9,0-1.7,0-2.6,0.1
						c-0.5-0.1-0.9-0.2-1.4-0.4c0.3-0.3,0.5-0.6,0.8-1c0.4,0,0.9,0,1.3,0l0,0l0,0c0.9-0.2,1.7-0.4,2.6-0.6l0,0c3.8-1,7.6-2,11.5-2.9
						c10.1-2.3,20.3-3.3,30.5-2c13.1,1.7,24.4,7.5,34.8,15.4c0.5,0.4,1.4,0.7,0.9,1.9C92.5,957.9,72.6,954.3,53.1,948.6L53.1,948.6z
						"/>
					<path id="XMLID_572_" class="st82" d="M100.5,901.7c-2.9-0.6-6-1-8.9-2.8c26.2-8.5,48.6-10.1,75.5,6.3l0,0l0,0
						c0.5,0.2,0.9,0.4,1.4,0.6l0,0l0,0c0.6,0.1,1.7,0.4,1.3,0.9c-0.7,1-1.8,0.6-2.7-0.2c-0.7-0.1-1.4,0-1.9-0.7
						c-2.7,0.1-5.3-0.5-7.8-1.3c0,0,0,0,0,0c-6.1-0.4-12.3-1.2-18.4-0.5C126.1,905.3,113.2,904.5,100.5,901.7z"/>
					<g id="XMLID_569_">
						<path id="XMLID_570_" class="st82" d="M78.9,911.8c6.1,0.6,12.3,0.5,18.3,1.8c14.1,3.3,27,8.9,37.1,19.8
							c2,2.2,3.9,4.5,4.4,7.7c-9.4-2-53.1-22.1-62.4-28.7C77.1,911.5,78.1,911.7,78.9,911.8z"/>
					</g>
					<path id="XMLID_568_" class="st82" d="M25.9,942.8c0,0.8,0.1,1.7-1.2,2.2c-0.7-3.4-1.4-6.6-1.4-10l0,0c-0.9-4.1-1-8.3-1.2-12.5
						c-0.9-14.2,2-28.3,1.2-42.6c-0.8-4.1-1.2-8.2-1.3-12.4l0,0c0-0.6-0.2-1.6,0.5-1.7c1.1-0.2,1.2,1.1,1.5,1.8
						c6.2,13.2,9.3,26.9,7.9,41.6C30.9,920.6,29.1,931.8,25.9,942.8z"/>
					<path id="XMLID_567_" class="st82" d="M-22.2,1010.1c6.4-10,12.6-20.1,19.6-29.7c5.7-7.8,11.2-15.8,18-22.8
						c3.4-4.4,7.1-8.5,11.8-11.6c0,0,0,0,0,0c1.1-1.1,2.2-2.1,3.3-3.2c2.5-2.9,5.7-5.1,8.8-7.2c0.9-2.6,3.3-3.6,5.3-5.1
						c0.5-0.4,1-0.8,1.4-1.2c0.3-0.8,1.1-1,1.8-1.4l0,0c0.8-1.2,2.1-1.8,3.3-2.6l0,0c0.9-1.2,2.1-1.9,3.8-2.5
						c-0.5,2.1-2.1,2.4-3.2,3.2c-0.7,1.3-2.1,1.8-3.2,2.6l0,0c-0.3,0.6-0.7,1.1-1.4,1.2l0,0h0c-0.6,0.5-1.2,0.9-1.8,1.4l0,0
						c-1.3,2-3.4,3-5.1,4.5c0,0,0,0,0,0c-2.3,3.2-5.7,5.2-8.5,7.9v0c-0.9,1.1-1.8,2.1-2.7,3.2c-0.8,2-3,2.8-4.1,4.4
						c-0.3,0.2-0.6,0.5-0.9,0.7c-0.3,0.4-0.6,0.8-1,1.1c-0.2,0.3-0.4,0.7-0.6,1.1c-0.7,1-1.5,1.8-2.5,2.4
						c-13.4,16.2-23.3,34.3-31.2,53.7c-0.9,2.3-1,5.7-3,6.5c-2,0.8-4.4-1.8-6.8-2.5C-23.5,1013.4-23.7,1012.3-22.2,1010.1z"/>
					<path id="XMLID_566_" class="st82" d="M24.7,952.5c1.1-1.1,2.6-0.7,3.8-1.3c0.7,0,1.4,0.2,2-0.5c1.9-0.9,3.8-0.6,5.8-0.1
						c6.2,2,11.9,4.9,17.1,8.9c9.5,7.4,17.8,15.9,25.2,25.3c1.4,1.3,2.8,2.6,3.1,4.6c-1.7-0.1-3-1.1-3.8-2.6l0,0l0,0
						c-0.2-0.2-0.5-0.4-0.7-0.7c-1.3-0.1-2-0.9-2.6-1.9l0,0c-8.3-6.1-16.5-12.5-25.1-18.3c-7-4.7-14.3-8.8-22.8-10.3
						c-0.4-0.3-0.8-0.3-1.2-0.3c-0.9,0-1.8,0.1-2.1-1C23.1,953.3,24.1,953.1,24.7,952.5z"/>
					<path id="XMLID_565_" class="st82" d="M52.1,918.2c-0.3,0.9,0.1,1.9-0.7,2.7c-0.2,0.7,0.1,1.8-1.4,2c0-1.2,0-2.3,0-3.4
						c0,0,0,0,0,0c0,0,0,0,0,0c0-8.5-0.1-17,0.1-25.6c0.1-3.2,0.1-6.4,1.1-9.5c0,0,0,0,0,0c0.6-8.4,2.2-16.5,4.5-24.6
						c0-0.3,0-0.6,0.1-1c0.2-0.7-0.2-2,1-2c1,0.1,0.9,1.3,1,2.1c0,1.8,0,3.6,0,5.4l0,0c1,8.6,0.6,17.2-0.1,25.8
						C56.8,899.7,55.1,909.1,52.1,918.2z"/>
					<path id="XMLID_561_" class="st82" d="M9.6,939c-0.1-0.9-0.3-1.8-0.4-2.6c-0.7-3.6-1.6-7.2-2.7-10.7
						c-4.2-14.3-10.9-28.3-18.1-34.6c-0.5,5.1,0.5,10,1.3,14.8c2.2,14,6.5,27.4,12.1,40.5c0.2,0.4,0.5,0.7,0.7,1.1
						c0.9,3.2,2.2,6.1,3.9,9l0,0c0.8,2.1,1.4,4.2,2.8,6.2C11.4,957.3,11.3,948.6,9.6,939z M-10.8,898.2c0,0.1,0,0.1,0,0.2
						c0.1,0.7,0.2,1.4,0.2,2C-10.7,899.7-10.8,898.9-10.8,898.2z"/>
					<path id="XMLID_560_" class="st82" d="M81,905.1c-1.2,0.6-2.2,1.8-3.8,2.1c0.5-1.7,2-2.1,3.1-2.7
						C80.6,904.7,80.8,904.9,81,905.1z"/>
					<path id="XMLID_559_" class="st82" d="M99.1,861.7L99.1,861.7L99.1,861.7c0.1,0.5,0.1,1-0.4,1.3c-0.2,1.4-0.3,2.8-1.4,4
						c0,0,0,0,0,0c-4.3,15.8-12.4,29.3-24.1,40.7c-0.2,0.4-0.4,0.7-0.9,0.8c-0.1,0-0.2-0.1-0.3-0.1c0.6,0.5,1.4,0.7,1.9,1.3
						c-0.9,0.6-1.7,1.3-2.6,1.9c-0.9,0.3-1.4,1.7-2.9,1c0.5-1,1.5-1.2,2.3-1.7l0,0c0.4-0.9,0.9-1.7,1.3-2.6l0,0c0,0,0,0,0,0
						c0.2-2.6,1.3-4.9,2.3-7.3c3-6.7,6.3-13.2,10.1-19.5c4.2-7,8.1-14.2,14.1-20c0.2-0.8-0.3-2,0.9-2.4c0.2-0.1,0.5,0.1,0.5,0.1
						C100,860.3,100,861.1,99.1,861.7z"/>
					<path id="XMLID_558_" class="st82" d="M81.7,989.4C81.7,989.4,81.7,989.4,81.7,989.4L81.7,989.4
						C81.6,989.4,81.6,989.4,81.7,989.4C81.7,989.4,81.7,989.4,81.7,989.4C81.7,989.4,81.7,989.4,81.7,989.4z"/>
					<path id="XMLID_557_" class="st82" d="M83.8,991.9c-1.3-0.6-2.2-1.1-2.1-2.5C83.1,989.5,83.7,990.4,83.8,991.9z"/>
					<path id="XMLID_556_" class="st82" d="M110.9,941.4c0.5,0,1.2,0.1,1.3,0.6c0.2,0.9-0.5,0.7-1,0.7c-1-0.1-2.1,0.3-3-0.6
						c-0.7-0.1-1.4,0-2-0.6c-2.5,0.1-4.9-0.4-7.1-1.3c0,0,0,0,0,0c-8.8-1.2-17.5-3.4-26.1-5.8c-5.6-1.6-11.1-3.3-16-6.5
						c0-0.1-0.1-0.1-0.2-0.1c0.1,0,0.1,0.1,0.2,0.1c-0.9,0-2.2,0.1-2.1-1.1c0.1-1,1.3-0.8,2.1-0.8c-0.1,0-0.1,0.1-0.2,0.1
						c0.1,0,0.1-0.1,0.2-0.1c0.2-0.1,0.4-0.1,0.6,0c5.7-1.5,11.3-1.7,17,0c0,0,0,0,0,0c11.2,2.4,21.3,7.3,31,13
						c1.5,0.3,2.8,0.9,3.9,2c0,0,0,0,0,0l0,0l0,0l0,0l0,0C110,941,110.4,941.2,110.9,941.4z"/>
					<path id="XMLID_555_" class="st82" d="M21.5,864.6c-0.6,0.1-0.6-0.4-0.7-0.8c0-0.4-0.1-0.9,0.4-1c0.2,0,0.6,0.5,0.8,0.8
						C22.1,864.1,21.9,864.5,21.5,864.6z"/>
					<path id="XMLID_554_" class="st82" d="M65.4,915.5C65.4,915.5,65.4,915.5,65.4,915.5L65.4,915.5
						C65.5,915.5,65.5,915.5,65.4,915.5z"/>
					<path id="XMLID_553_" class="st82" d="M62.9,917.4L62.9,917.4c-0.9,0.7-1.7,1.4-2.6,2.1v0c-0.9,0.6-1.8,1.3-2.6,1.9
						c-0.4,0.6-1.1,1.4-1.6,0.8c-0.6-0.7,0.4-1.1,1-1.4l0,0l0,0c0.9-0.7,1.7-1.3,2.6-2c1-0.8,1.9-1.8,3.3-1.9c0.6-1,1.2-2,2.6-1.3
						C64.6,916.1,63.7,916.7,62.9,917.4C62.9,917.4,62.9,917.4,62.9,917.4z"/>
					<path id="XMLID_552_" class="st82" d="M65.5,915.5c0.1-1.2,0.6-2,2.1-1.8C67.1,914.6,66.3,915,65.5,915.5z"/>
					<path id="XMLID_551_" class="st82" d="M65.5,915.5C65.5,915.5,65.5,915.5,65.5,915.5C65.5,915.5,65.5,915.5,65.5,915.5
						L65.5,915.5z"/>
				</g>
			</g>
			<g id="XMLID_280_">
				<g id="XMLID_515_">
					<path id="XMLID_535_" class="st82" d="M647.9,945.6L647.9,945.6c0.8,1,1.5,2,2.3,3.1c0.1-0.1,0.2-0.1,0.3-0.2c0,0,0,0,0,0
						c0.2,0.1,0.4,0.3,0.5,0.5c2.3,4,5.4,7.4,8,11.2c0.1,0.1,0.2,0.2,0.3,0.3c-0.1,0.1-0.2,0.2-0.3,0.3c0.5,0.7,1,1.4,1.5,2.1
						c0.4,0.3,0.8,0.6,1.1,0.9c0.1-0.4,0.2-0.8,0.3-1.2c-0.3-0.3-0.5-0.7-0.8-1c0,0,0,0,0,0l0,0c-0.3-0.8-0.7-1.6-1-2.5l0,0
						c-1.5-3.6-2.9-7.3-4.5-10.9c-4.1-9.5-9.4-18.2-16.6-25.7c-9.1-9.5-20.5-15.2-33.1-18.8c-0.6-0.2-1.4-0.7-2.1,0.4
						C617,919.6,631.7,933.4,647.9,945.6L647.9,945.6z"/>
					<path id="XMLID_534_" class="st82" d="M657.3,879.6c2.3,2,4.4,4.2,7.5,5.5c-8.7-26.1-20.8-45.1-50-56.9l0,0l0,0
						c-0.4-0.3-0.8-0.5-1.3-0.8v0v0c-0.4-0.4-1.3-1.1-1.5-0.6c-0.3,1.1,0.6,1.8,1.7,2c0.5,0.5,0.9,1.2,1.7,1.2
						c1.5,2.2,3.5,4,5.7,5.5c0,0,0,0,0,0c4,4.7,8.3,9.2,11.4,14.5C639.2,861.3,647.5,871.1,657.3,879.6z"/>
					<path id="XMLID_533_" class="st82" d="M662.2,903c-4.1-4.5-7.7-9.6-12.4-13.6c-11-9.4-23.3-16.4-38-18
						c-2.9-0.3-5.9-0.4-8.8,1.1c7.2,6.4,49.4,29.5,60.2,33.1C663.4,904.3,662.7,903.6,662.2,903z"/>
					<path id="XMLID_532_" class="st82" d="M668.8,964c-0.6,0.5-1.5,0.9-1.1,2.3c3.1-1.4,6.2-2.8,8.9-4.9l0,0
						c3.8-1.8,7.3-4.2,10.8-6.5c11.9-7.8,21.6-18.5,33.5-26.3c3.8-1.8,7.3-3.9,10.7-6.4l0,0c0.5-0.4,1.4-0.8,1.1-1.4
						c-0.5-1-1.5-0.3-2.3-0.2c-14.3,2.8-27.1,8.5-38.1,18.4C683.7,946.8,675.7,954.9,668.8,964z"/>
					<path id="XMLID_531_" class="st82" d="M643.4,1042.8c4.2-11.1,8.6-22.1,12.2-33.4c2.9-9.2,6.1-18.4,7.6-28
						c1.5-5.4,2.6-10.8,2.3-16.4l0,0c0.2-1.5,0.4-3.1,0.6-4.6c0.8-3.8,0.7-7.6,0.6-11.4c1.5-2.3,0.9-4.9,0.9-7.3
						c0-0.6,0.1-1.3,0.1-1.9c0.5-0.7,0.1-1.5,0.1-2.3l0,0c0.5-1.4,0.1-2.8,0.1-4.1c0,0,0,0,0,0c0.5-1.4,0.3-2.8-0.2-4.6
						c-1.3,1.6-0.7,3.1-0.7,4.5c-0.6,1.3-0.2,2.7-0.2,4.1l0,0c-0.3,0.6-0.4,1.2-0.1,1.8l0,0l0,0c0,0.8,0,1.5,0,2.3l0,0
						c-0.8,2.2-0.4,4.5-0.6,6.8l0,0c-1.2,3.7-0.8,7.7-1.3,11.5l0,0c-0.3,1.3-0.6,2.7-0.9,4c-1.2,1.8-0.5,4-1.1,6c0,0.4,0,0.8,0,1.2
						c-0.2,0.5-0.3,1-0.3,1.5c-0.1,0.4-0.3,0.7-0.5,1.1c-0.4,1.1-0.5,2.3-0.5,3.4c-5,20.4-13.7,39.2-24.6,57
						c-1.3,2.1-3.9,4.2-3.4,6.3c0.5,2.1,4.1,2.5,6,4C641.5,1045.8,642.5,1045.3,643.4,1042.8z"/>
					<path id="XMLID_530_" class="st82" d="M661.7,970.8c0.2-1.5-1-2.5-1.2-3.9c-0.4-0.6-1-1-0.8-1.9c-0.5-2-1.8-3.5-3.3-4.7
						c-5.3-3.8-11-6.7-17.3-8.4c-11.6-3.2-23.4-4.8-35.3-5.1c-1.9-0.4-3.8-0.7-5.6,0.2c1.2,1.3,2.6,1.7,4.3,1.5l0,0h0
						c0.3,0.1,0.6,0.1,1,0.2c0.8,1,1.9,1,3.1,1l0,0c9.9,3,19.9,5.7,29.6,9.2c8,2.9,15.6,6.3,21.8,12.2c0.4,0.1,0.7,0.5,1,0.8
						c0.5,0.7,1,1.5,2,1.1C662,972.6,661.6,971.6,661.7,970.8z"/>
					<path id="XMLID_529_" class="st82" d="M673,928.4c-0.5,0.8-1.6,1.1-1.7,2.2c-0.5,0.6-1.5,1-0.7,2.3c0.9-0.7,1.8-1.4,2.8-2
						c0,0,0,0,0,0c0,0,0,0,0,0c6.8-5.1,13.8-10,20.5-15.3c2.5-2,5.1-3.9,7-6.6c0,0,0,0,0,0c6.4-5.5,12-11.6,17.1-18.2
						c0.2-0.2,0.5-0.4,0.7-0.6c0.5-0.6,1.8-1,1-2c-0.6-0.7-1.6,0-2.2,0.5c-1.5,1-2.9,2.1-4.4,3.2l0,0c-7.5,4.3-14.2,9.7-20.7,15.4
						C685,913.5,678.5,920.5,673,928.4z"/>
					<path id="XMLID_526_" class="st82" d="M662.9,989.2c2.4,0,4.5-0.8,6.6-1.4l0,0c3.3-0.4,6.4-1.1,9.5-2.2c0.4,0,0.9,0,1.3,0
						c13.8-3.3,27.1-7.8,39.7-14.4c4.3-2.3,8.8-4.3,12.6-7.8c-9.3-2-24.5,0.9-38.5,6.1c-3.5,1.2-6.9,2.5-10.2,4.2
						c-0.8,0.4-1.6,0.8-2.4,1.2C672.8,979.3,665.7,984.4,662.9,989.2z M724.5,968.1c0.6-0.3,1.2-0.7,1.8-1c0,0,0.1-0.1,0.2-0.1
						C725.9,967.4,725.2,967.8,724.5,968.1z"/>
					<path id="XMLID_525_" class="st82" d="M666.2,897.3c0.2,1.4-0.2,2.8,0.6,4.3c1-1.5,0.5-2.8,0.3-4.1
						C666.8,897.4,666.5,897.4,666.2,897.3z"/>
					<path id="XMLID_524_" class="st82" d="M690.3,857C690.3,857,690.3,857,690.3,857C690.3,857,690.3,857,690.3,857
						c-0.5,0.2-0.9,0.5-0.9,1.1c-1,1-2.1,2-2.3,3.5c0,0,0,0,0,0C677,874.4,671,889,668.8,905.1c-0.2,0.4-0.3,0.8-0.1,1.2
						c0.1,0.1,0.2,0.1,0.3,0.2c-0.8-0.1-1.4-0.7-2.2-0.7c0,1.1,0,2.1,0,3.2c0.3,0.9-0.5,2.2,0.9,2.9c0.5-1,0.1-1.9,0-2.8l0,0
						c0.4-0.9,0.9-1.8,1.3-2.6l0,0c0,0,0,0,0,0c1.9-1.7,3.2-4,4.4-6.2c3.5-6.4,6.9-13,9.7-19.7c3.1-7.5,6.6-15,7.7-23.2
						c0.5-0.7,1.7-0.9,1.4-2.2c0-0.2-0.4-0.4-0.4-0.4C690.9,855.3,690.2,855.9,690.3,857z"/>
					<path id="XMLID_523_" class="st82" d="M598.1,947C598.1,947,598.1,947.1,598.1,947L598.1,947
						C598.1,947.1,598.1,947.1,598.1,947C598.1,947,598.1,947,598.1,947C598.1,947,598.1,947,598.1,947z"/>
					<path id="XMLID_522_" class="st82" d="M594.8,946.8c1.2,0.7,2.2,1.1,3.3,0.2C597.2,946,596.2,946,594.8,946.8z"/>
					<path id="XMLID_521_" class="st82" d="M619.3,895c-0.3-0.4-0.8-0.9-1.3-0.7c-0.9,0.3-0.2,0.9,0,1.2c0.7,0.8,1,1.9,2.3,2
						c0.5,0.5,0.8,1.2,1.7,1.2c1.4,2.1,3.2,3.7,5.3,4.9l0,0c6.3,6.4,13.2,12,20.2,17.5c4.6,3.6,9.3,7,14.8,9c0.1,0,0.1,0,0.2,0.1
						c-0.1,0-0.1,0-0.2-0.1c0.5,0.8,1.2,1.8,2.2,1c0.7-0.6-0.1-1.5-0.6-2.2c0,0.1,0,0.1,0,0.2c0-0.1,0-0.1,0-0.2
						c-0.1-0.2-0.2-0.4-0.3-0.5c-2.2-5.4-5.4-10.1-10.1-13.7c0,0,0,0,0,0c-8.6-7.5-18.5-12.7-28.9-17.2c-1.1-1-2.4-1.7-3.9-1.9l0,0
						l0,0l0,0l0,0l0,0C620.1,895.5,619.7,895.2,619.3,895z"/>
					<path id="XMLID_520_" class="st82" d="M734.2,921c0.2,0.5,0.7,0.2,1,0.1c0.3-0.2,0.8-0.5,0.5-0.9c-0.1-0.2-0.7-0.2-1.1-0.1
						C734.3,920.2,734,920.6,734.2,921z"/>
					<path id="XMLID_519_" class="st82" d="M667.1,916C667.1,916,667.1,916,667.1,916L667.1,916C667.1,916,667.1,916,667.1,916z"/>
					<path id="XMLID_518_" class="st82" d="M667.2,919.2L667.2,919.2c0,1.1-0.1,2.2-0.1,3.3l0,0c0,1.1,0,2.2,0,3.3
						c-0.2,0.7-0.4,1.7,0.3,1.8c1,0.1,0.6-1,0.5-1.6h0l0,0c0-1.1,0-2.2,0.1-3.2c0.1-1.3,0.3-2.6-0.4-3.8c0.5-1.1,0.9-2.1-0.5-2.8
						C667.2,917.1,667.2,918.2,667.2,919.2L667.2,919.2z"/>
					<path id="XMLID_517_" class="st82" d="M667.1,916c1-0.8,1.2-1.7,0.2-2.8C666.8,914.2,667,915.1,667.1,916z"/>
					<path id="XMLID_516_" class="st82" d="M667.1,916C667.1,916,667.1,916,667.1,916C667.1,916,667.1,916,667.1,916L667.1,916z"/>
				</g>
			</g>
			<g id="XMLID_43_">
				<g id="XMLID_488_">
					<path id="XMLID_508_" class="st82" d="M1253.8,943.4L1253.8,943.4c0.8,1,1.5,2,2.3,3.1c0.1-0.1,0.2-0.1,0.3-0.2c0,0,0,0,0,0
						c0.2,0.1,0.4,0.3,0.5,0.5c2.3,4,5.4,7.4,8,11.2c0.1,0.1,0.2,0.2,0.3,0.3c-0.1,0.1-0.2,0.2-0.3,0.3c0.5,0.7,1,1.4,1.5,2.1
						c0.4,0.3,0.8,0.6,1.1,0.9c0.1-0.4,0.2-0.8,0.3-1.2c-0.3-0.3-0.5-0.7-0.8-1c0,0,0,0,0,0l0,0c-0.3-0.8-0.7-1.6-1-2.5c0,0,0,0,0,0
						c-1.5-3.6-2.9-7.3-4.5-10.9c-4.1-9.5-9.4-18.2-16.6-25.7c-9.1-9.5-20.5-15.2-33.1-18.8c-0.6-0.2-1.4-0.7-2.1,0.4
						C1222.8,917.4,1237.5,931.2,1253.8,943.4L1253.8,943.4z"/>
					<path id="XMLID_507_" class="st82" d="M1263.2,877.5c2.3,2,4.4,4.2,7.5,5.5c-8.7-26.1-20.8-45.1-50-56.9l0,0l0,0
						c-0.4-0.3-0.8-0.5-1.3-0.8v0v0c-0.4-0.4-1.3-1.1-1.5-0.6c-0.3,1.1,0.6,1.8,1.7,2c0.5,0.5,0.9,1.2,1.7,1.2
						c1.5,2.2,3.5,4,5.7,5.5c0,0,0,0,0,0c4,4.7,8.3,9.2,11.4,14.5C1245.1,859.1,1253.4,868.9,1263.2,877.5z"/>
					<path id="XMLID_506_" class="st82" d="M1268,900.9c-4.1-4.5-7.7-9.6-12.4-13.6c-11-9.4-23.3-16.4-38-18
						c-2.9-0.3-5.9-0.4-8.8,1.1c7.2,6.4,49.4,29.5,60.2,33.1C1269.3,902.1,1268.6,901.5,1268,900.9z"/>
					<path id="XMLID_505_" class="st82" d="M1274.7,961.8c-0.6,0.5-1.5,0.9-1.1,2.3c3.1-1.4,6.2-2.8,8.9-4.9l0,0
						c3.8-1.8,7.3-4.2,10.8-6.5c11.9-7.8,21.6-18.5,33.5-26.3c3.8-1.8,7.3-3.9,10.7-6.4l0,0c0.5-0.4,1.4-0.8,1.1-1.4
						c-0.5-1-1.5-0.3-2.3-0.2c-14.3,2.8-27.1,8.5-38.1,18.4C1289.5,944.7,1281.6,952.8,1274.7,961.8z"/>
					<path id="XMLID_504_" class="st82" d="M1249.3,1040.6c4.2-11.1,8.6-22.1,12.2-33.4c2.9-9.2,6.1-18.4,7.6-28
						c1.5-5.4,2.6-10.8,2.3-16.4l0,0c0.2-1.5,0.4-3.1,0.6-4.6c0.8-3.8,0.7-7.6,0.6-11.4c1.5-2.3,0.9-4.9,0.9-7.3
						c0-0.6,0.1-1.3,0.1-1.9c0.5-0.7,0.1-1.5,0.1-2.3l0,0c0.5-1.4,0.1-2.8,0.1-4.1l0,0c0.5-1.4,0.3-2.8-0.2-4.6
						c-1.3,1.6-0.7,3.1-0.7,4.5c-0.6,1.3-0.2,2.7-0.2,4.1l0,0c-0.3,0.6-0.4,1.2-0.1,1.8c0,0,0,0,0,0c0,0,0,0,0,0c0,0.8,0,1.5,0,2.3
						l0,0c-0.8,2.2-0.4,4.5-0.6,6.8l0,0c-1.2,3.7-0.8,7.7-1.3,11.5l0,0c-0.3,1.3-0.6,2.7-0.9,4c-1.2,1.8-0.5,4-1.1,6
						c0,0.4,0,0.8,0,1.2c-0.2,0.5-0.3,1-0.3,1.5c-0.1,0.4-0.3,0.7-0.5,1.1c-0.4,1.1-0.5,2.3-0.5,3.4c-5,20.4-13.7,39.2-24.6,57
						c-1.3,2.1-3.9,4.2-3.4,6.3c0.5,2.1,4.1,2.5,6,4C1247.4,1043.7,1248.4,1043.1,1249.3,1040.6z"/>
					<path id="XMLID_503_" class="st82" d="M1267.6,968.6c0.2-1.5-1-2.5-1.2-3.9c-0.4-0.6-1-1-0.8-1.9c-0.5-2-1.8-3.5-3.3-4.7
						c-5.3-3.8-11-6.7-17.3-8.4c-11.6-3.2-23.4-4.8-35.3-5.1c-1.9-0.4-3.8-0.7-5.6,0.2c1.2,1.3,2.6,1.7,4.3,1.5l0,0v0
						c0.3,0.1,0.6,0.1,1,0.2c0.8,1,1.9,1,3.1,1l0,0c9.9,3,19.9,5.7,29.6,9.2c8,2.9,15.6,6.3,21.8,12.2c0.4,0.1,0.7,0.5,1,0.8
						c0.5,0.7,1,1.5,2,1.1C1267.9,970.5,1267.4,969.4,1267.6,968.6z"/>
					<path id="XMLID_502_" class="st82" d="M1278.8,926.2c-0.5,0.8-1.6,1.1-1.7,2.2c-0.5,0.6-1.5,1-0.7,2.3c0.9-0.7,1.8-1.4,2.8-2
						c0,0,0,0,0,0c0,0,0,0,0,0c6.8-5.1,13.8-10,20.5-15.3c2.5-2,5.1-3.9,7-6.6c0,0,0,0,0,0c6.4-5.5,12-11.6,17.1-18.2
						c0.2-0.2,0.5-0.4,0.7-0.6c0.5-0.6,1.8-1,1-2c-0.6-0.7-1.6,0-2.2,0.5c-1.5,1-2.9,2.1-4.4,3.2l0,0c-7.5,4.3-14.2,9.7-20.7,15.4
						C1290.9,911.4,1284.4,918.4,1278.8,926.2z"/>
					<path id="XMLID_499_" class="st82" d="M1268.7,987.1c2.4,0,4.5-0.8,6.6-1.4l0,0c3.3-0.4,6.4-1.1,9.5-2.2c0.4,0,0.9,0,1.3,0
						c13.8-3.3,27.1-7.8,39.7-14.4c4.3-2.3,8.8-4.3,12.6-7.8c-9.3-2-24.5,0.9-38.5,6.1c-3.5,1.2-6.9,2.5-10.2,4.2
						c-0.8,0.4-1.6,0.8-2.4,1.2C1278.7,977.1,1271.6,982.2,1268.7,987.1z M1330.4,965.9c0.6-0.3,1.2-0.7,1.8-1c0,0,0.1-0.1,0.2-0.1
						C1331.8,965.2,1331.1,965.6,1330.4,965.9z"/>
					<path id="XMLID_498_" class="st82" d="M1272.1,895.2c0.2,1.4-0.2,2.8,0.6,4.3c1-1.5,0.5-2.8,0.3-4.1
						C1272.7,895.3,1272.4,895.2,1272.1,895.2z"/>
					<path id="XMLID_497_" class="st82" d="M1296.2,854.8L1296.2,854.8L1296.2,854.8c-0.5,0.2-0.9,0.5-0.9,1.1c-1,1-2.1,2-2.3,3.5
						c0,0,0,0,0,0c-10.1,12.9-16.1,27.4-18.3,43.6c-0.2,0.4-0.3,0.8-0.1,1.2c0.1,0.1,0.2,0.1,0.3,0.2c-0.8-0.1-1.4-0.7-2.2-0.7
						c0,1.1,0,2.1,0,3.2c0.3,0.9-0.5,2.2,0.9,2.9c0.5-1,0.1-1.9,0-2.8l0,0c0.4-0.9,0.9-1.8,1.3-2.6l0,0c0,0,0,0,0,0
						c1.9-1.7,3.2-4,4.4-6.2c3.5-6.4,6.9-13,9.7-19.7c3.1-7.5,6.6-15,7.7-23.2c0.5-0.7,1.7-0.9,1.4-2.2c0-0.2-0.4-0.4-0.4-0.4
						C1296.8,853.2,1296.1,853.8,1296.2,854.8z"/>
					<path id="XMLID_496_" class="st82" d="M1203.9,944.9C1204,944.9,1204,944.9,1203.9,944.9L1203.9,944.9
						C1204,944.9,1204,944.9,1203.9,944.9C1204,944.9,1204,944.9,1203.9,944.9C1204,944.9,1204,944.9,1203.9,944.9z"/>
					<path id="XMLID_495_" class="st82" d="M1200.7,944.6c1.2,0.7,2.2,1.1,3.3,0.2C1203.1,943.8,1202,943.8,1200.7,944.6z"/>
					<path id="XMLID_494_" class="st82" d="M1225.1,892.9c-0.3-0.4-0.8-0.9-1.3-0.7c-0.9,0.3-0.2,0.9,0,1.2c0.7,0.8,1,1.9,2.3,2
						c0.5,0.5,0.8,1.2,1.7,1.2c1.4,2.1,3.2,3.7,5.3,4.9c0,0,0,0,0,0c6.3,6.4,13.2,12,20.2,17.5c4.6,3.6,9.3,7,14.8,9
						c0.1,0,0.1,0,0.2,0.1c-0.1,0-0.1,0-0.2-0.1c0.5,0.8,1.2,1.8,2.2,1c0.7-0.6-0.1-1.5-0.6-2.2c0,0.1,0,0.1,0,0.2
						c0-0.1,0-0.1,0-0.2c-0.1-0.2-0.2-0.4-0.3-0.5c-2.2-5.4-5.4-10.1-10.1-13.7c0,0,0,0,0,0c-8.6-7.5-18.5-12.7-28.9-17.2
						c-1.1-1-2.4-1.7-3.9-1.9l0,0c0,0,0,0,0,0l0,0l0,0l0,0C1226,893.3,1225.6,893.1,1225.1,892.9z"/>
					<path id="XMLID_493_" class="st82" d="M1340.1,918.9c0.2,0.5,0.7,0.2,1,0.1c0.3-0.2,0.8-0.5,0.5-0.9c-0.1-0.2-0.7-0.2-1.1-0.1
						C1340.2,918,1339.9,918.4,1340.1,918.9z"/>
					<path id="XMLID_492_" class="st82" d="M1273,913.9C1273,913.9,1273,913.9,1273,913.9L1273,913.9
						C1273,913.9,1273,913.9,1273,913.9z"/>
					<path id="XMLID_491_" class="st82" d="M1273.1,917L1273.1,917c0,1.1-0.1,2.2-0.1,3.3l0,0c0,1.1,0,2.2,0,3.3
						c-0.2,0.7-0.4,1.7,0.3,1.8c1,0.1,0.6-1,0.5-1.6h0l0,0c0-1.1,0-2.2,0.1-3.2c0.1-1.3,0.3-2.6-0.4-3.8c0.5-1.1,0.9-2.1-0.5-2.8
						C1273,914.9,1273.1,916,1273.1,917C1273.1,917,1273.1,917,1273.1,917z"/>
					<path id="XMLID_490_" class="st82" d="M1273,913.8c1-0.8,1.2-1.7,0.2-2.8C1272.7,912,1272.9,912.9,1273,913.8z"/>
					<path id="XMLID_489_" class="st82" d="M1273,913.9C1273,913.9,1273,913.8,1273,913.9C1273,913.8,1273,913.8,1273,913.9
						L1273,913.9z"/>
				</g>
			</g>
		</g>
	</g>
</g>
</svg>
